<svg xmlns="http://www.w3.org/2000/svg" xmlns:xlink="http://www.w3.org/1999/xlink" xml:space="preserve" id="Слой_1" x="0" y="0" version="1.1" viewBox="0 0 1125 2436"><defs><path id="reuse-0" d="M840 1059s0 0 0 0h-1s0 0 0 0v1h-2l-3 2s0 0 0 0l-7 5 2 5c0 7-7 10-13 7-6 6-7 7-8 10 20-1 36-13 42-29l-10-1z" class="st0"/><path id="reuse-1" d="M672 876c3 2 6 3 10 3l-2 9v1a37 37 0 0 1-26-16c-5-7-7-14-6-22h10l1 10" class="st0"/><path id="reuse-2" d="m130 1076-10 27-32-13 6-13 5-13c0-2 2-2 3-2l27 11c1 0 2 2 1 3z" class="st0"/></defs><style>.st0{fill:none;stroke:#8591b675;stroke-width:3;stroke-linecap:round;stroke-linejoin:round}.st0,.st1{stroke-miterlimit:10}.st1,.st2,.st3{fill:none;stroke:#8591b675;stroke-width:3}.st3{stroke-linecap:round;stroke-linejoin:round}</style><path d="m754 266 19 60c2 5 9 16 24 15 6 0 18-4 19-6 2-1 8-6 5-14-2-8-18-65-23-77s-17-9-17-9-13 3-17 6c-4 4-12 14-10 25z" class="st0"/><path d="M776 237s0 0 0 0l-3-4-13 6c-5 3-9 11-10 14 0 2 3 4 4 4m28-22 30 102 4-1c2-2 8-7 5-15-2-8-18-65-23-77-3-11-14-9-16-9z" class="st0"/><circle cx="773.4" cy="264.7" r="10.9" class="st0"/><path d="m780 285 1 1-1 1h-1l1-2m0-3h-1c-3 1-4 3-3 5 0 2 2 3 4 3h1c2-1 4-3 3-5s-2-3-4-3z"/><circle cx="762.2" cy="352.6" r="8.2" class="st0"/><path d="m784 300 1 1v2h-1l-1-1v-1l1-1m0-3-1 1c-2 0-3 3-3 5 1 1 2 3 4 3l1-1c3 0 4-2 3-5 0-1-2-3-4-3zm6-7 1 1v1l-1 1-1-1v-1l1-1m0-3-1 1c-3 0-4 3-3 5 0 2 2 3 4 3h1c2-1 3-3 3-6-1-1-2-3-4-3zm-16 8 1 1v1h-2l1-2m0-3h-1c-2 1-3 3-3 5l4 3h2c2-1 3-3 2-5 0-2-2-3-4-3z"/><path d="m801 251 5 2 2 8c1 2-1 4-3 5m13 41h0c1-1 3-3 2-4l-2-8c0-2-3-3-5-3m12 67h0v1s0 0 0 0c-2 10-24 19-38 21-14 3-22-8-27-21" class="st0"/><path d="m819 333 5 26v1s0 0 0 0c-1 6-37 21-50 6l-5-9m-4-12h0c-2-12 2-23-3-31-7-9-18 1-12 14l5 20m75-109a2876 2876 0 0 1-1-43v-10s0 0 0 0v-2l1-1v-1l1-2s0 0 0 0l1-1s0 0 0 0h1v-1h1v-1h1l1-1s0 0 0 0h1l5-1s0 0 0 0 0 0 0 0l6-1 13 1c4 2 11 6 14 12l2 8 2 63c0 6-3 19-18 22-4 1-11 2-16 1 0 0 0 0 0 0h-4s0 0 0 0 0 0 0 0l-3-2c-3-1-7-5-7-10l-1-15" class="st0"/><path d="m848 174 2-4c1-1 8-1 13 1s12 8 13 11c1 1 0 4-1 5m-45 52a2876 2876 0 0 1-1-43v-10s0 0 0 0v-2l1-1v-1l1-2s0 0 0 0l1-1s0 0 0 0h1v-1h1v-1h1l1-1s0 0 0 0h1l5-1s0 0 0 0v0l3 106s0 0 0 0h-4s0 0 0 0 0 0 0 0l-3-2c-3-1-7-5-7-10l-1-15" class="st0"/><circle cx="859" cy="200.2" r="10.9" class="st0"/><path d="m860 221 1 1-1 2-1-2 1-1m0-3c-3 0-4 2-4 5 0 2 1 4 4 4 2 0 4-2 4-5 0-2-2-4-4-4z"/><circle cx="899.2" cy="316.1" r="8.2" class="st0"/><path d="m860 237 1 1v1l-1 1-1-1 1-2m0-3c-2 0-4 2-4 5 0 2 2 4 4 4 3 0 4-2 4-5 0-2-2-4-4-4zm-8-4 1 1-1 1-1-1 1-1m0-3c-2 0-4 2-4 4s2 4 4 4 4-2 4-4c0-3-2-4-4-4zm16 2 1 1-1 1-1-1 1-1m0-3c-3 0-4 2-4 4 0 3 2 5 4 5 2-1 4-2 4-5 0-2-2-4-4-4z"/><path d="M829 211c-2 0-4-2-4-4v-8l4-4v16zm1 43-4-3v-8c0-2 2-4 4-4v15zm63 57c-2-11-8-19-5-27 3-11 17-5 15 9l1 17m0 13c-1 12-5 24-20 27-13 2-38-11-44-43v-1" class="st0"/><path d="m895 323-3 14c-7 18-47-4-52-30v-1l-3-27s0 0 0 0m-65-34 7-2m68-61h7m-4-3v7m-14 377L724 688c-3 3-3 8 0 12h0c7 9 15 17 25 23l37 24c10 6 22 4 30-4l106-121c3-3 3-7 2-11h0c-5-9-12-17-21-21l-56-29c-4-2-8-1-11 2z" class="st0"/><path d="m732 700 45 29c8 5 19 3 25-4l106-118" class="st0"/><path d="m833 572-41 46c-2 3-2 6 1 8l46 26c8 4 17 3 23-4l36-40c2-2 1-6-2-8l-57-29c-2-1-4 0-6 1z" class="st0"/><path d="m840 586-30 33c-2 2-1 6 1 8l33 18c2 1 4 1 6-1l31-35c2-2 1-6-1-7l-34-17c-2-1-5-1-6 1zm-67 63-3-2-4 1-3 3c-1 1-1 3 1 4l1 1c1 1 2 3 1 4l-3 4v4l2 1h4l4-5h4l3 2 3-1 3-4c2-1 1-3 0-4h-1c-2-1-2-3-1-5l3-3c1-1 1-3-1-4l-2-2-4 1-4 5h-3z" class="st0"/><circle cx="802.4" cy="679.9" r="6.8" class="st0"/><circle cx="821.6" cy="678.7" r="6.8" class="st0"/><path d="M759 686h10m2 8h12m-6 11-1 14m7-14-2 18m8-18-2 18m8-18-2 18m8-17-2 14m-428 68 1-1c0-2 0-5-2-7l-44-54c-2-3-6-4-9-3l-84 16c-3 0-5 2-6 5l-2 7 40 61 6 4" class="st0"/><path d="m232 749 39 59 95-23" class="st0"/><path d="m243 752 29 43c1 1 2 2 4 1l74-18c3 0 4-4 2-6l-32-40c-1-1-2-2-3-1l-71 15c-3 1-4 4-3 6zm28 66v18c0 2 1 5 3 6l62 50c4 3 9 4 14 3l1-1c2-1 4-3 4-5v-1s48-27 76-25l1 1 6 1 3-1c3-1 5-4 5-7l1-11c0-3-1-5-3-7l-65-38v-7s-2-7-10-6l-93 24c-3 1-5 3-5 6z" class="st0"/><path d="m374 805-92 23 49 40c7 5 15 6 23 4l84-26" class="st0"/><path d="m313 830 10-2 6 5 11-3 8 6-9 3 6 5-11 3-8-5-10 2-8-5 10-3z" class="st0"/><ellipse cx="370.7" cy="827.9" class="st0" rx="8.1" ry="3.7"/><ellipse cx="385.6" cy="819.3" class="st0" rx="8.1" ry="3.7"/><ellipse cx="378.5" cy="855.2" class="st0" rx="6.4" ry="2.7"/><ellipse cx="397.7" cy="849.4" class="st0" rx="6.4" ry="2.7"/><ellipse cx="277.4" cy="821.5" class="st0" rx="2.6" ry="3.9"/><path d="M445 88h-1m19-6-1 1m-22 2c-1-3 4-7 11-9s13-2 14 2m-22 15c0 3 7 4 14 2 6-2 11-6 10-9m-22 2 9-1 8-4" class="st0"/><path d="m445 88 9-1 8-4" class="st0"/><path d="M466 82c3 1 6 2 6 4 1 5-5 10-14 13-10 3-18 2-19-3-1-2 0-4 2-6l1 3" class="st0"/><path d="m445 88 9-1 8-4 1-1m-22 8-1-5 4 3" class="st0"/><path d="m467 86-1-4-1-4-2 4-1 1-8 4-9 1" class="st0"/><path d="m445 88 9-1 8-4M235 592l-1-1m19 6h-1m-20-10c1-4 8-4 14-2 7 2 12 6 11 9m-27 1c-1 3 4 7 11 9 6 2 13 1 14-2m-20-10 8 4 9 1" class="st0"/><path d="m235 592 8 4 9 1" class="st0"/><path d="m256 599 3 6c-2 5-10 6-20 3-9-3-15-8-14-13 1-2 3-3 6-4l-1 4" class="st0"/><path d="m235 592 8 4 9 1h1m-22-6 1-4 2 4" class="st0"/><path d="m255 602 1-3 1-5-4 3h-1l-9-1-8-4" class="st0"/><path d="m235 592 8 4 9 1M741 96l-1-1m19 6h-1m-20-10c1-4 7-5 14-3 7 3 12 7 11 10m-27 1c-1 3 4 7 11 9 6 2 13 1 14-2m-20-10 8 4 9 1" class="st0"/><path d="m741 96 8 4 9 1" class="st0"/><path d="m762 103 3 6c-2 4-10 6-19 3-10-3-16-9-15-13 1-2 3-3 6-4l-1 4" class="st0"/><path d="m741 96 8 4 9 1h1m-22-6 1-4 2 4" class="st0"/><path d="m761 106 1-3 1-5-4 3h-1l-9-1-8-4" class="st0"/><path d="m741 96 8 4 9 1m267-41-1-1m20-2-1 1m-22-2c-1-4 5-7 12-8 7 0 13 2 13 5m-24 11c0 4 6 6 13 5s13-4 12-7m-22-2a24 24 0 0 0 18-2" class="st0"/><path d="M1025 60a24 24 0 0 0 18-2" class="st0"/><path d="M1047 58c3 1 5 3 5 5 1 4-7 9-16 10s-18-2-19-6c0-3 2-5 4-6l1 3" class="st0"/><path d="M1025 60a24 24 0 0 0 18-2l1-1m-23 4v-5c0 1 1 3 3 3" class="st0"/><path d="M1047 62v-4l-1-5-2 4-1 1-9 3c-4 1-7 0-9-1" class="st0"/><path d="M1025 60a24 24 0 0 0 18-2M821 409l-1-1m20-2-1 1m-22-2c-1-3 5-6 12-7s13 1 13 4m-24 12c0 3 6 5 13 4s13-4 12-7m-22-2a24 24 0 0 0 18-2" class="st0"/><path d="M821 409a24 24 0 0 0 18-2" class="st0"/><path d="M843 407c3 1 5 3 5 5 1 5-7 9-16 10s-18-2-19-6c0-2 2-4 4-6l1 3" class="st0"/><path d="M821 409a24 24 0 0 0 18-2l1-1m-23 4v-5c0 1 1 3 3 3" class="st0"/><path d="M843 411v-4l-1-5c1 2 0 3-2 4l-1 1-9 3-9-1" class="st0"/><path d="M821 409a24 24 0 0 0 18-2M371 1941l-1-1m20 0-1 1m-21-5c0-3 5-6 12-6s13 3 13 6m-26 9c0 3 6 6 13 6s13-3 13-6m-22-4 9 1 9-1" class="st0"/><path d="m371 1941 9 1 9-1" class="st0"/><path d="M393 1941c3 2 5 4 5 6 0 4-8 8-18 8s-17-4-17-8c0-3 1-4 4-6v4" class="st0"/><path d="m371 1941 9 1 9-1 1-1m-23 1v-5c0 2 1 3 3 4" class="st0"/><path d="M393 1945v-9c0 2-1 3-3 4l-1 1-9 1c-3 0-6 0-9-2" class="st0"/><path d="m371 1941 9 1 9-1m-267 426v-1m19 7h-2m-19-12c1-3 8-3 14-1 7 2 12 7 11 10m-28-1c-1 4 4 8 11 10 6 3 13 2 14-1m-20-11 8 4 10 2" class="st0"/><path d="m122 2367 8 4 10 2" class="st0"/><path d="M143 2375c2 2 3 4 2 6-1 4-10 5-19 2s-15-9-14-13c1-2 3-4 7-4l-2 3" class="st0"/><path d="m122 2367 8 4a22 22 0 0 0 11 2m-22-7 1-5c0 2 0 3 2 5" class="st0"/><path d="m142 2378 1-3 1-5-3 3h-2c-2 0-5 0-9-2l-8-4" class="st0"/><path d="m122 2367 8 4 10 2m829-77-1-1m20-1h-1m-22-2c0-4 5-7 12-7 7-1 13 2 14 5m-26 10c0 3 6 6 14 5s12-3 12-7m-22-2 9 1c4-1 7-1 9-3" class="st0"/><path d="m969 2296 9 1c4-1 7-1 9-3" class="st0"/><path d="M991 2295c3 1 5 3 5 5 0 4-8 8-17 9-10 1-18-2-18-7 0-2 1-4 4-6v4" class="st0"/><path d="m969 2296 9 1c4-1 7-1 9-3h1m-23 2v-4l3 3" class="st0"/><path d="M991 2298v-3l-1-5c1 1 0 3-2 4h-1c-2 2-5 2-9 3s-7-1-9-1" class="st0"/><path d="m969 2296 9 1c4-1 7-1 9-3m-686-896c2 7-1 18-13 20-11 3-18-7-20-13v-3c-2-8-3-27-8-43-6-17-18-38-17-50 0-8 16-11 16-11 12-2 16-3 20 3s4 36 8 55c4 16 10 30 13 38l1 4z" class="st0"/><circle cx="253.2" cy="1278.4" r="20.8" class="st0"/><path d="M240 1282c-2-8 3-15 10-17" class="st0"/><circle cx="271.2" cy="1348.7" r="5.5" class="st0"/><path d="M269 1335h-2c-3 1-5-1-6-3l-3-12c0-2 1-5 4-6h2c2-1 5 1 5 3l3 12c1 3-1 5-3 6zm19 83c-11 3-19-7-20-13v-3l32-8 1 4c2 7-1 18-13 20z" class="st0"/><circle cx="252.2" cy="1321.7" r="1.5" class="st0"/><circle cx="255" cy="1331.2" r="1.5" class="st0"/><circle cx="275.7" cy="1315.8" r="1.5" class="st0"/><circle cx="277.7" cy="1326.3" r="1.5" class="st0"/><path d="M1049 936v3l5 4-43 29-49-55 44-14 5 5-2 7c-7-1-14 1-18 4-1 1 0 3 1 3l1-1c3-2 9-4 15-3l-5 15c-1 1 4 10 15 6l6-15c5 4 10 10 8 16-4 13-29 13-40-1-4-4-5-9-3-13 0-1 0-2-2-2l-1 1c-2 5-1 11 3 16 13 16 41 15 46-1 2-7-3-15-10-19l1-1 16 13 1 1c1 0 2-2 1-3l-17-14a351 351 0 0 0 1-9h-1l-1 1-10 28c-6 2-9-2-10-4l6-17 7-23 11 4-2 7 1 1h1l1-1 2-7a26 26 0 1 0-26-19l2 1 1-2a23 23 0 1 1 45-6c0 20-23 29-36 19l-7-8h-1c-1 0-2 1-1 2 1 3 4 5 7 8l-4 12c-4-3-6-5-7-4-50 16-48 14-48 16l-1 11 33 38h1c2 0 2-1 2-2l-33-37v-6l49 55v6l-12-13h-1c-1 0-2 1-1 2l15 16 25-17c2 0 1-2 0-2h-1l-22 15v-7l43-29-1 7-12 8c-1 1-1 3 1 3h1l13-10 1-11a69 69 0 0 0-9-7z"/><path d="M1014 871c0-10 8-18 18-18M509 173c6 3 17 13 20 18" class="st0"/><path d="M508 190c2-3 16-13 21-16M148 35c4 5 10 19 11 24" class="st0"/><path d="M140 51c3-3 20-7 26-7M20 241c3 5 8 16 8 20" class="st0"/><path d="M13 254c3-2 16-5 21-5m1 112c7 3 19 12 22 17" class="st0"/><path d="M36 380c1-4 15-16 20-19m-1 465c7 5 18 21 20 27" class="st0"/><path d="M49 847c3-3 23-13 31-14m504 298 10 14m-13-3 15-7m400 505 10 14m-13-2c1-2 11-7 15-8m-690-372c6 1 18 7 22 10" class="st0"/><path d="M322 1288c1-4 10-17 14-20m473 121c6 1 18 7 22 10" class="st0"/><path d="M813 1405c1-4 9-17 13-20m-201 728c6 1 18 6 22 9m-18 6 14-20m107 141c6 6 16 21 18 27" class="st0"/><path d="M743 2270c3-4 23-12 30-13m-417 148c6 2 16 10 19 14" class="st0"/><path d="M356 2420c2-3 13-13 18-16M690 377c7 2 20 8 24 11" class="st0"/><path d="M695 395c0-4 10-18 15-22M860 53c6 1 20 8 24 11" class="st0"/><path d="M864 70c1-4 10-18 15-22M741 738c3 6 7 20 7 25" class="st0"/><path d="M730 752c4-2 21-3 27-2" class="st0"/><path stroke-width="3" d="M608 107h13v13h-13zm305 100h13v13h-13z" class="st0"/><path d="m448 425 11-22 22 12-11 22z" class="st0"/><path stroke-width="3" d="m91 407 11-6 6 11-11 6zm-7 182 13-2 2 13-13 2zm88 137 8-2 2 8-8 2zm232-110 1-9 9 1-1 9zm183 21 10-2 3 10-11 3zm157 277 1-11 11 1-1 11zm-291 6 2-15 14 2-2 15zm617 251 18-11 11 18-18 11zm-22 258 11-2 2 11-11 2zm-202 48v-11l11 1v11zm-120-212 1-21 21 1-1 21zm130 334 11-2 2 11-11 2zm-241-21 11-2 2 11-11 1zm-318 27 14-2 2 14-14 2zm-166 2 12-17 16 12-11 16z" class="st0"/><path d="m201 1371 5-11 11 5-5 11z" class="st0"/><path stroke-width="3" d="m875 2144 7-9 9 6-6 10z" class="st0"/><path d="m1036 2101 3-17 17 3-3 17zM366 40l-10-5 10-6 10-6v23zm670 92-11 8-1-13-1-13 12 6 11 5zm9 346-13 2 5-12 5-12 8 10 8 10zM936 989l-13-2 7-10 8-10 5 11 5 12zm-178 462-9 1 3-9 4-9 6 8 6 8zm87 353-9 1 3-9 4-9 6 8 6 7zm236 55-10-5 9-6 10-6 1 11v11zm-586 101-10 1 4-9 4-9 6 8 6 7zm-247 175-12-6 11-8 12-8 1 14 1 14z" class="st0"/><circle cx="819" cy="1859.5" r="13" class="st0"/><circle cx="334.1" cy="1777.6" r="6.9" class="st0"/><circle cx="303" cy="2077.8" r="6.9" class="st0"/><circle cx="943" cy="1470.2" r="13" class="st0"/><circle cx="46.8" cy="1174.5" r="9.8" class="st0"/><circle cx="269.8" cy="1203.5" r="5.9" class="st0"/><circle cx="453.1" cy="774" r="11.9" class="st0"/><circle cx="84.5" cy="265.4" r="11.9" class="st0"/><circle cx="926.1" cy="393.5" r="11.9" class="st0"/><circle cx="708" cy="179.5" r="14.4" class="st0"/><path d="m319 1986 1 2c1 5-6 16-15 25-8 8-23 11-25 11s-6-5-9-8c-2-3-8 0-11-3l-75-86c-6-7 3-27 17-38 12-9 24-9 24-8l9 8c3 2 6 0 7 1l69 78 1 2" class="st0"/><path d="m263 1997-54-62c-2-2-2-5 1-7l26-24c2-2 6-2 8 1l54 61c2 2 2 6 0 8l-27 23c-2 3-6 2-8 0zm-51-93 1 4-4 3s-5-2-4-5l3-3 4 1zm5-4 4 1 3-3s-1-5-4-5l-3 3v4zm-4 0h-4l-4-4s2-4 6-4l2 4v4zm4 4c-2 1-1 4-1 4l3 4s5-1 5-5l-3-3h-4z" class="st0"/><circle cx="291.3" cy="1989.7" r="3.6" class="st0"/><circle cx="303.8" cy="2003.9" r="3.6" class="st0"/><circle cx="304.7" cy="1990.7" r="3.6" class="st0"/><circle cx="290.4" cy="2003.3" r="3.6" class="st0"/><path d="M188 1920c-1 3 2 8 3 9s2-2 2-3-5-8-5-6zm40-38c3-2 5-1 7 1l6 7m78 96c-2-3-7-8-7-10v-6l7 9c2 2 1 5 0 7zm-117-46-4-5v-2h2l5 5-1 2h0-2zm48 55-4-5v-1l1-1h2l4 5v2h-3zm9 10-4-5v-1l1-1h2l4 5v2h-3zm-51-58-1-1v-2l1-1h1l2 2v2h-3zm6 7-1-1v-2l1-1h2l1 2v2h-3zm28 31-1-1v-3h2l2 2-1 2v1l-2-1z" class="st0"/><path d="M190 1925c1 1-4 13-6 11-2-3 2-8 2-8" class="st0"/><path d="M184 1936c-6 1 8 43 10 51s11 5 9-2-17-49-19-49zm605-24h0l23 3h0c0-2 2-3 4-3l37 5c3 0 5 2 5 4l1 15-2 11-28 55c-1 3-5 4-8 4l-38-6-3-1-1-2-8-1-27-4-13-2-27-3-4-1c-1 2-3 3-6 2l-34-5c-4-1-6-3-6-6l-1-17 2-5 40-54c1-2 3-3 5-3l33 4a4 4 0 0 1 3 4l16 1" class="st0"/><path d="M705 1930c-6 9-8 32 31 37s68-8 75-24-12-33-43-35c-35-3-56 12-63 22z" class="st0"/><path d="M709 1943c1 7 8 16 29 18 12 2 23 1 32 0m-110-3 30 5m99 13 30 4c3 0 7-2 8-5l25-49m-27 59v14m-123-43-5 8 2 17m84-14-4 8v16" class="st0"/><ellipse cx="681.9" cy="1949.4" class="st0" rx="12.4" ry="6.5"/><ellipse cx="808.5" cy="1967" class="st0" rx="12.4" ry="6.5"/><ellipse cx="686.1" cy="1936.2" class="st0" rx="4.3" ry="2.3"/><ellipse cx="761" cy="1923" class="st0" rx="7.3" ry="3.8"/><path d="m795 1958 5 4m-68 29-26-4-1-12 26 3zm39 5-27-4v-13l27 4zm-61-15 16 2m22 3 17 3m-447 283-21 69-18 60-15-4 4-13-53-14-7 6 15-50 22-73 69 1 4 4-3 11 3 3z" class="st0"/><path d="m297 2341-18 60-15-4 4-13-53-14-7 6 15-50 66 10 8 5zm15-80-20 66m-5 17-13 46" class="st0"/><path d="M264 2397h0l15 4 2-5c1 4 5 7 5 7l-1 5-87-26 2-3c3 0 6-1 8-3" class="st0"/><circle cx="305.5" cy="2298.2" r="1.4" class="st0"/><path d="m284 2373-6 19m14-46-5 15m-14-23 7 1 2 3v0l-3 2-7-2c-1 0-2-1-2-3h0l3-1zm-12 48s-4 8-15 6m5-1288-22 31-1 4v6l4 5 106 45c3 1 6 0 7-2l20-35 1-2v-6c0-2-1-4-3-5l-105-43c-3-1-5 0-7 2z" class="st0"/><path d="m234 1141 106 45 20-35m-95-30-3 4-6-2-3 4 5 3-3 5 6 2 3-5 6 3 3-5-6-3 3-4z" class="st0"/><path d="m278 1135-5 8 29 12 5-8zm2 5 6 3m7 3 6 2" class="st0"/><ellipse cx="319.7" cy="1150" class="st0" rx="4.1" ry="4.7" transform="rotate(-66 320 1150)"/><ellipse cx="329.9" cy="1161.4" class="st0" rx="4.1" ry="4.7" transform="rotate(-66 330 1161)"/><path d="m346 1145-30-12-4 6-28-13 4-5-26-10c-1-1-3-1-4 1l-15 22c-1 1-1 3 1 4l86 36c1 1 3 0 4-1l13-24c1-2 1-4-1-4zm-41-24c1-3 3-12 23-10 14 0 14-17 3-25m338 79c-7-7-2-23-28-48-18-17-37-23-42-25-6-2-14-11-14-18-2-21 20-36 45-35 9 0 21 4 34 10 17 8 35 23 45 44 4 8 6 17 7 28 5 46-29 62-47 44z" class="st0"/><path d="M658 1070c2-21-22-27-32-26s-33 9-30 31c2 17 27 21 37 20 9-2 24-8 25-25zm26 27c-14 0-31 13-25 33 6 21 25 28 34 26 10-1 22-11 18-35-3-17-21-24-27-24z" class="st0"/><path d="m624 1062 4-7h1c1-2 2-2 4-1l3 2c2 1 2 3 1 4v1l-4 7" class="st0"/><path d="M617 1058c3-3 7-4 11-3m-5 29c4 0 8-1 11-3m3-20c3 3 4 7 3 11m-26 6c-3-3-4-8-3-12" class="st1"/><path d="m627 1077-4 7h-1c-1 2-3 2-4 1l-4-2-1-5h1l4-7m6-9-7-4-1-1c-1-1-3 0-4 1l-2 4c-1 1-1 3 1 4h0l7 5m15-3 7 4v1c2 1 2 2 1 4l-2 3c-1 2-3 2-4 1h-1l-7-4m34 8 8 8m-19 3 8 8" class="st0"/><circle cx="674.6" cy="1111.6" r="4.9" class="st0"/><circle cx="688.1" cy="1117.2" r="4.9" class="st0"/><circle cx="701.4" cy="1122.6" r="4.9" class="st0"/><circle cx="668.9" cy="1127.1" r="6.6" class="st0"/><circle cx="684.4" cy="1133.2" r="6.6" class="st0"/><circle cx="699.3" cy="1138.9" r="6.6" class="st0"/><path d="m709 1093-9 2c-6 0-8-11-18-21s-19-11-19-13c-1-2 0-8 1-12 9 4 17 10 25 17s15 16 20 27z" class="st0"/><path d="M689 1066s21 3 16-16c-5-14-6-22 0-28m404 298 11-6m-43 9c8 2 17 1 22 0m17-80a64 64 0 0 0-46-7 44 44 0 0 0-31 28m34 92c0 13 1 23-2 26-5 5-18-11-26-21-12-17-21-51-23-60s-3-20-1-25c2-4 11-8 18-12l-1 7h-2c-8 1-13 9-12 16 1 8 9 13 17 11h3v1l5 8-1 1-4 2c0 4 3 8 3 8l4-1c1-1 3 0 4 1l1 4c4 0 7-2 8-3a49 49 0 0 0 13 4c-4 11-4 23-4 33zm59-94 1 2 3 12h0" class="st0"/><path d="M1136 1285c0 9-5 17-10 23l-6 6c10 6 20 15 23 21l1 3c4 12 10 18 16 16s3-32 2-38l-14-51c-2-7-7-13-11-17-3-3-7-5-11-5h-10c4 3 9 7 12 12" class="st0"/><path d="M1073 1356c13-8 44-22 70-21m-105-61c4-1 8 1 9 5s-2 8-7 8v1" class="st0"/><path d="M1038 1274h-1c-4 1-7 4-6 8 0 4 4 6 9 6" class="st0"/><path d="M1038 1274h-1c-4 1-7 4-6 8 0 4 4 6 9 6m-2-17c8-1 14 4 16 11 1 7-4 13-11 16" class="st0"/><circle cx="1119.3" cy="1272.9" r="5.2" class="st0"/><circle cx="1126.8" cy="1260.3" r="5.2" class="st0"/><circle cx="1140.9" cy="1268.1" r="5.2" class="st0"/><circle cx="1133.8" cy="1280.1" r="5.2" class="st0"/><path d="M1095 1295c-5 2-23 3-29-12l-15-37c6-5 12-8 19-10 4-1 13-3 24-1l14 33c6 15-8 26-13 27z" class="st0"/><path d="M1100 1277h0l-23 7c-2 0-4-1-4-3l-8-18-1-3c9-7 20-10 30-8h0l8 20c1 2 0 5-2 5z" class="st0"/><path d="m1100 1277-23 7c-2 0-4-1-4-3l-8-19 26-6 9 21z" class="st0"/><path d="m1069 1273 26-7 4-1m-35 54 1-1-1-3c0-1 0-3 2-3l3-1c1-6-3-9-3-9l-3 1c-2 0-3 0-4-2l-1-3c-6 0-9 3-9 3l1 4v2m54 9c-1-1-3 0-3 1l-2 10c1 3 15-2 13-4l-8-7zm24-10c14 10 23 22 26 36m-71 0c10-5 32-12 46-13" class="st0"/><path d="M1107 1334s8 5 5 18 6 17 12 17m-1140-49 11-6m-43 9c8 2 17 1 22 0m17-80a64 64 0 0 0-46-7 44 44 0 0 0-31 28m34 92c0 13 1 23-2 26-5 5-18-11-25-21-13-17-21-51-24-60-2-9-3-20-1-25 2-4 11-8 18-12l-1 7h-2c-8 1-13 9-12 16 1 8 9 13 17 11h3v1l5 8-1 1-4 2c0 4 3 8 3 8l4-1c1-1 3 0 4 1l1 4c4 0 7-2 8-3a49 49 0 0 0 13 4c-4 11-4 23-4 33zm59-94 1 2 3 12h0" class="st0"/><path d="M11 1285c0 9-5 17-10 23l-6 6c10 6 20 15 23 21l1 3c4 12 10 18 16 16s3-32 2-38l-14-51c-2-7-7-13-11-17-3-3-7-5-11-5H-9c4 3 9 7 12 12" class="st0"/><path d="M-52 1356c13-8 44-22 70-21m-105-61c4-1 8 1 9 5s-2 8-7 8v1" class="st0"/><circle cx="-5.7" cy="1272.9" r="5.2" class="st0"/><circle cx="1.8" cy="1260.3" r="5.2" class="st0"/><circle cx="15.9" cy="1268.1" r="5.2" class="st0" transform="translate(-3)"/><circle cx="8.8" cy="1280.1" r="5.2" class="st0"/><path d="m-56 1273 26-7 4-1m-35 54 1-1-1-3c0-1 0-3 2-3l3-1c1-6-3-9-3-9l-3 1c-2 0-3 0-4-2l-1-3c-6 0-9 3-9 3l1 4v2m54 9c-1-1-3 0-3 1l-2 10c1 3 15-2 13-4l-8-7zm24-10c15 10 23 22 26 36m-71 0c10-5 32-12 46-13" class="st0"/><path d="M-18 1334s7 5 5 18 6 17 12 17m550 87c-13 4-24-31-25-39-2-13-3-34 4-39s18 0 23-1l20-9c2-1 10-14 14-15 5-2 18-3 35 20 17 24 23 39 12 46-10 7-20-9-29-6-9 2-36 13-39 17s-6 23-15 26z" class="st0"/><circle cx="558.7" cy="1409.2" r="12.7" class="st0"/><path d="m552 1403 6-2 2 4 5-2 3 6-5 3 2 4-6 2-2-4-4 1-3-5 5-2z" class="st0"/><circle cx="589" cy="1396.4" r="8.1" class="st0"/><circle cx="536.3" cy="1397.2" r="8.1" class="st0"/><circle cx="590.6" cy="1374.2" r="3.1" class="st0"/><circle cx="594" cy="1363.6" r="3.1" class="st0"/><circle cx="603.9" cy="1367.9" r="3.1" class="st0"/><circle cx="600.6" cy="1377.9" r="3.1" class="st0"/><circle cx="566.5" cy="1383.5" r="3.1" class="st0"/><path d="M562 1372c-3-4-4-8-2-17s-11-13-11-13m62 840c1-5 6-10 13-12l2-1m55 16 2-1 3-1m21 10c-2-8-12-12-21-10l4-6c2 0 10 0 13 2l4 6v8z" class="st0"/><path d="m708 2213-2 28c-1 11-7 14-12 15s-13-1-15-8l-8-33-31-8s-9 5-19 19c-4 5-11 9-18 6-8-3-8-11-6-16l13-33 1-1-1 6c2 7 11 11 24 8 11-3 15-12 13-19-2-6-12-9-21-8l3-3c2-2 5-3 7-3 5 0 8 2 10 4s3 10 3 10l32 8c-10 5-13 13-11 19 2 7 12 11 24 8s15-13 13-19c4 9 2 16 1 20zm-67-14 23 5m-28-4v5m35 10v-4m-24-18 4 1m8 3 5 1" class="st0"/><path d="m630 2173-2 3 1 3 4-1 2-4zm-5 7-1-2-4-1-2 4 3 1zm-4 10 5 1 2-3-2-3-3 1zm11-7 1 3 4 1 2-4-4-1z" class="st0"/><ellipse cx="678.4" cy="2194.4" class="st0" rx="3" ry="2.8" transform="rotate(-56 678 2194)"/><ellipse cx="691" cy="2189.2" class="st0" rx="3" ry="2.8" transform="rotate(-56 691 2189)"/><ellipse cx="697" cy="2198.5" class="st0" rx="3" ry="2.8" transform="rotate(-56 697 2198)"/><ellipse cx="683.8" cy="2203.6" class="st0" rx="3" ry="2.8" transform="rotate(-56 684 2203)"/><path d="M663 2180c1-9 3-17 19-20s20-14 15-27m122-421h-15c-3 0-5 3-5 5v9h67v-9c0-3-3-5-5-5h-17m-45 14 6 11h54l7-11m-22-14h-25l2-7c0-2 2-4 4-4h13c2 0 4 2 5 4l1 7zm-16-11v-27m8 27v-27" class="st0"/><circle cx="832.1" cy="1657.8" r="16.3" class="st0"/><path d="M805 1712v-5h10v5M457 725c33-9 56-32 51-51-5-16-35-23-69-14s-56 33-52 49c5 18 36 26 70 16z" class="st0"/><ellipse cx="445.5" cy="684.7" class="st0" rx="7.8" ry="3.7" transform="rotate(-16 445 685)"/><ellipse cx="445.7" cy="685.7" class="st0" rx="19.2" ry="9.8" transform="rotate(-16 446 686)"/><path d="m429 678-10-5m20 0-4-7m16 34 6 19m6-26 24 11m465 407-3 2m-9 7-13 10c-3 2-4 5-4 8a56 56 0 0 0 3 18l2 6c1 3 4 6 6 7l39 25c6 4 13 3 19-1l11-8m-43-78 9 2 45 29 5 8v5l-1 16c-1 4-3 8-6 11l-2 1" class="st0"/><path d="m930 1139 45 29c3 2 8 2 11-1l26-21m-72-20 8 6 1-20-8-5-1 19zm11-7 9 6v-20l-8-5-1 19z" class="st0"/><circle cx="944.5" cy="1115" r="1.3" class="st0"/><circle cx="955.8" cy="1107.7" r="1.3" class="st0"/><path d="M989 1176c0-3 2-8 7-6s22 14 19 17-25-8-26-11z" class="st0"/><path d="M1015 1187c6 4 13 6 11 19-2 19 24 33 45 2m-100-55 10 7 22-17-10-6zm8 21 2 16m14-10s-1-8 5-8m-758 546 10 31 28 1 22-18-11-32-28-1z" class="st0"/><path d="M250 1719h19l16-12m-13 20 6 19M496 486c3-30 53-56 84-53 7 1 14 10 6 21 0 0 22 55 65 83s-91-9-136-29c-18-7-20-13-19-22z" class="st0"/><path d="M574 456c-16 0-41 21-45 26m-23-3c5-2 15 5 12 17l-1 4s82 31 113 35" class="st0"/><ellipse cx="547.6" cy="497.5" class="st0" rx="5.3" ry="9.2" transform="rotate(-63 548 497)"/><ellipse cx="583" cy="491.5" class="st0" rx="6.8" ry="11.9" transform="rotate(-57 583 492)"/><ellipse cx="573.1" cy="469.3" class="st0" rx="1.3" ry="2.3" transform="rotate(-57 573 469)"/><ellipse cx="550.7" cy="482.5" class="st0" rx="1.3" ry="2.3" transform="rotate(-57 551 482)"/><ellipse cx="578.4" cy="510.2" class="st0" rx="1.3" ry="2.3" transform="rotate(-57 578 510)"/><ellipse cx="610.6" cy="520.2" class="st0" rx="3.8" ry="6.6" transform="rotate(-75 611 520)"/><path d="m481 280-42 31 3 3-4 3-2 5 1 7 2 2 54 50h6l7-6 2 2c2 2 5 3 7 1l41-36 2-4v-1c-1-3-2-6-5-8l-64-49c-2-2-6-2-8 0zm-42 32 1 3" class="st0"/><path d="m442 327-2-7 54 48v7m-46-42 40 35m-35-59 31-23 54 42-31 29zm91 20s8 0 12 4m-62 35 7-5s11 7 10 15m6-12 30-26" class="st0"/><path d="M486 300c1-1-4-6-6-4l-14 12c-1 2 5 7 8 5l5-4-2-3m-1 12s14-14 17-14c2 0 7 4 7 7s-16 15-16 15m0-15 9 8m-5 12 17-16-1 9 11-3-18 17m28-7-6-5-9 9-8 8 6 5m8-8-6-5m-392-14-11 8-15-6-2-10 10-6h0l10-7 22-15 7 4 1 1 4 2 3-2 5-3 11-8 34-23 1 9 1 6-36 28-5 3-3 2-3-1" class="st0"/><path d="m159 317 2 36s5 7 4 9c-1 1-25 28-31 14-5-14 4-42-2-51-2-3-9-4-14-4l29-20 5 2 3 1 3-2 1 15zm-59-10h0l3-8 4-3 3 4m42-13-5 3-3-1-3-2-5-3 15-11 7 3 5 3" class="st0"/><path d="m141 287-2 2 1 1m18-14 65-44 9-6 4-3s7 2 8 11l-46 31" class="st0"/><path d="m223 232 4-8 2-2 3 4m-73 91c6-3 14-9 11-10s-6-6-7-9m-8 75c7 7-4 15-6 24-2 17 16 19 33 7m226-228-3-1a24 24 0 1 0-1 45m64-20 2 1c13 5 19 19 14 31a24 24 0 0 1-44 3" class="st0"/><circle cx="461.3" cy="223.2" r="18.4" class="st0"/><circle cx="453.3" cy="219.2" r="3.9" class="st0"/><circle cx="465.1" cy="215.7" r="3.9" class="st0"/><circle cx="457.4" cy="231.2" r="3.9" class="st0"/><circle cx="469.3" cy="227.7" r="3.9" class="st0"/><path d="m401 196 2-7-5-2-3 6m3 9-2 6-6-2 3-6m0 0-7-3 2-6 7 2m3 9 7 3 3-7-7-2m15 17 6-4m4 8 7-3m5-26s-3-13 9-15 15-12 9-18" class="st0"/><path d="m1052 330-5-38c-1-4-6-6-9-2l-24 30c-2 2-2 5 0 7s6 1 8-1c4-6 5-7 7-6l11 2c2 1 2 2 3 10 1 6 10 5 9-2z" class="st1"/><path d="m1035 310 3-4h1l1 5-1 1-4-1v-1z" class="st1"/><path d="m130 2025-6-5-8-5 3-7 4-11c0-1-2-3-4-3l-3 1h-1c-3 1-3 2-6 8l-2 5-1 1a284 284 0 0 0-11-7h-5l-4 4c-1 2 2 4 3 4l5 4 8 6-2 5c-1 1 0 2 1 2l1-1 3-6-1-3c-17-12-17-11-12-12l3-1a389 389 0 0 1 11 8c2 0 4-1 4-3 5-12 4-10 7-11l2-1 1 1-7 17 1 2c17 12 19 12 11 13l-1 1-1-1-9-7h-2c-2 0-4 0-4 2-5 13-4 11-7 13h-3l2-7c1-1 0-2-1-2l-1 1-3 8c0 2 1 3 4 3h3c4-1 5-3 7-9l2-6h1l9 7 3 1h2c4-1 6-2 6-4 1-3-1-5-2-5zM690 944c-2-2-8-3-8-3h-1c-1 0-2 0-11 11l-5 6-3-18c-1-4-2-6-4-6l-1-1-4-1-4 2c-1 1-1 4 1 13l1 2 2-2c-2-9-2-12-1-12l5 2c1 0 2-2 6 28 1-1 17-21 19-21l6 2-24 26-5 19-1 1c-2 0-6-2-5-3l5-19-4-18-1-1-2 2 4 17-6 18 1 4c2 2 5 3 7 3 4 0 5-3 5-3l5-18 14-16 8-8c1-1 3-4 1-6zm-415-31-3-3-16-7-13-6c-2 0-3 2-4 3-1 2-2 3-1 5 1 3 3 4 12 8l8 3-16 11v1c0 1 1 2 2 1l20-13c-25-11-25-10-22-15l1-1 28 13c3 1 1 3 1 4-2 3 1 1-42 29l24 11v3l-2 2h-1l-30-14 3-6 14-9 1-2-2-1-14 10h-1c-3 2-5 7-4 9a1118 1118 0 0 1 32 16l2 1c3 0 4-3 5-4v-3c1-2 0-4-2-5l-19-8 20-13 18-14 1-1v-5z"/><path d="m640-1 14 88 46-8-15-88z" class="st0"/><path d="m646 3 12 68 34-5-12-69z" class="st0"/><circle cx="676.3" cy="75.3" r="3" class="st0"/><path d="m640 2435 14 88 46-8-15-88z" class="st0"/><path d="m646 2439 12 68 34-5-12-68z" class="st0"/><circle cx="676.3" cy="2511.3" r="3" class="st0"/><path d="m482 1611 3-7c8-12 24-7 31-5l5-2s8-1 18 4 16 12 16 12l1 4c16 8 20 19 16 30l-3 5h0c-6 6-16 7-22 4h-1c-7-3-13-4-17 2-5 6-23 35-30 32s1-33 4-44c3-8-3-12-9-14" class="st0"/><path d="M494 1632c-6 3-13 12-15 15-3 4-6 8-11 6-5-1-1-15 3-25l11-17c-3 9 2 16 8 19l4 2zm69 37c-4 11-12 22-17 20-4-3-3-8-2-13l2-20h1c6 3 16 2 22-4-1 4-2 10-6 17zm-23-50-15-7c-2-1-3-4-2-6h0c1-2 4-3 6-2l15 7c2 1 3 3 2 6h0c-1 2-4 3-6 2z" class="st0"/><circle cx="551.5" cy="1635.6" r="3.2" class="st0"/><circle cx="555" cy="1644.8" r="3.2" class="st0"/><circle cx="563.5" cy="1641.1" r="3.2" class="st0"/><circle cx="560.9" cy="1631.2" r="3.2" class="st0"/><circle cx="526" cy="1631" r="4.8" class="st0"/><circle cx="517.6" cy="1649.5" r="9.9" class="st0" transform="rotate(-23 518 1649)"/><circle cx="517.6" cy="1649.5" r="5.3" class="st0"/><path d="m507 1618-1 2c-1 1-2 2-3 1l-2-1-2 1-1 2-3 1-2-1-1-3 1-1-1-3-2-1-1-3 1-2 3-1 1 1 3-1 1-2 3-1 2 1 1 3-1 2 1 2 2 1 1 3zm9-18-2 16 7-19m33 16-10 16 12-11m343 37c-1 1 0 3 1 4l8 9c1 2-1 11-1 12l1 4h4l11-5 11 5h5c2-1 1-2 1-3l-2-14 9-8 2-3-3-3-13-2c-2-1-5-10-6-11l-3-3-4 3-5 10-12 2-4 3zm-658-606c-1 1 0 2 1 3l4 6-3 8v3h3l8-2 7 5h2l2-2v-9c0-2 6-4 7-4l1-2-1-2-8-3-3-8-2-2-3 1-4 6h-8l-3 2zM56 534c0 2 1 2 2 3l8 4 2 9 2 2 3-1 6-6h12v-3c0-1-5-7-4-9l3-8v-3l-2-1-10 2c-2 0-6-5-6-6-1 0-3-2-4-1l-1 3-1 8-8 5-2 2zm475 375c-1 2 0 3 1 4l6 6c1 1-2 8-2 9l1 3h3l8-4 8 4 4 1 1-3c0-1-2-8-1-10l6-6 1-2-2-2-9-2-4-8-3-2-3 2-4 7-9 2-2 1zm-244 550c0 2 1 3 2 3l9 4 3 10 1 3 4-1 7-8c1-1 9 1 10 1l3-1v-3l-5-10 4-9v-3c-1-1-2-2-3-1l-10 2-8-7-4-1c-2 0-2 3-2 3l-1 10-8 6-2 2zm720 354c0 1 1 2 3 2l9 4 3 9 2 2c2 1 3 0 4-1l6-8h9c1 1 3-1 4-2s0-2-1-3c0-1-6-7-6-9l3-9v-3l-3-1-10 3c-2 0-7-5-8-5l-4-1-1 3v10l-8 6-2 3zM41 2240v3l3 7-4 7v3l2 1 8-1 6 6 2 1 2-2 2-8 7-3 2-2-1-2s-7-3-7-5l-2-7-1-3-3 1-5 5-8-1h-3zm288 124 1 1 5 2 2 5 2 1 1-1 3-4 5-1 2-1v-1l-4-5 1-5v-1l-2-1-5 2-4-2-2-1-1 2v5l-3 4-1 1zm709-359-1-1m20-2-1 1m-22-2c0-3 5-7 12-7 7-1 13 1 14 4m-25 11c0 4 6 6 14 5 7-1 12-4 12-7m-23-2a24 24 0 0 0 18-2" class="st0"/><path d="M1038 2005a24 24 0 0 0 18-2" class="st0"/><path d="M1060 2003c3 1 5 3 5 5 1 5-6 9-16 10s-18-2-18-6c0-2 1-4 4-6v3" class="st0"/><path d="M1038 2005a24 24 0 0 0 18-2l1-1m-22 4-1-5c0 1 1 3 3 3" class="st0"/><path d="m1061 2007-1-4v-5c0 2-1 3-3 4l-1 1-8 3-10-1" class="st0"/><path d="M1038 2005a24 24 0 0 0 18-2M631 728c0 2 1 2 3 3l10 3 4 11 3 3 3-2 7-9 11-1c1 0 3 0 4-2l-1-3c-1-1-7-8-7-10l3-11v-3l-4-1-11 4c-2 0-8-6-9-6-1-1-3-2-5-1s-1 2-1 3v11l-8 7-2 4z" class="st0"/><circle cx="653.7" cy="723" r="33" class="st0"/><path d="m656 757 18 33 8-20 20 1-19-32" class="st0"/><path d="m891 440-15 23a26 26 0 1 0 43 28l15-24-43-27z" class="st1"/><path d="m885 448-13-8s-11 14 4 23" class="st1"/><path d="m929 475 13 9s-9 16-23 7" class="st0"/><path d="M878 508c-5-3-10-1-13 3l16 10c2-4 1-10-3-13z" class="st1"/><path d="m883 529-26-16v-1c2-2 5-3 7-2l18 12c2 1 3 4 1 6v1z" class="st1"/><path d="m884 499-6 9m30-36-8 1-2-8-6 1 2 9-8 2 1 6 8-2 2 8 6-1-2-9 9-2zm145 158-20-30" class="st0"/><path stroke-width="3" d="m1033 600 13-9 8 13-13 8z" class="st0"/><path d="m1051 607 2 4 13-8-8-4v-9l-9 6m6 8-2 7M563 36l15-22" class="st0"/><path stroke-width="3" d="m572 23 6-9 9 6-6 9z" class="st0"/><path d="m578 28-2 3 9 6v-7l6-2-6-4m-4 6-5 1m-31 702 15-22" class="st0"/><path stroke-width="3" d="m553 720 6-9 9 7-6 9z" class="st0"/><path d="m560 725-3 3 10 6v-7l6-2-6-4m-5 6-5 1M150 237l-22-33" class="st0"/><path stroke-width="3" d="m129 204 14-10 9 15-14 9z" class="st0"/><path d="m148 212 3 4 14-9-9-4v-10l-10 6m6 10-1 7m359 977 7-28" class="st0"/><path stroke-width="3" d="m514 1177 2-12 12 3-3 12z" class="st0"/><path d="m522 1179-1 4 12 3-3-7 6-5-8-2m-2 8-5 3m466 170-19-21m0 0 8-8 9 8-9 8z" class="st0"/><path d="m982 1335 3 3 9-9-7-1-2-7-6 5m6 6v6m-561 858-8-28" class="st0"/><path stroke-width="3" d="m417 2168 11-4 3 12-11 3z" class="st0"/><path d="m428 2177 1 4 12-3-6-5 2-7-8 2m2 8-2 5m89 105 11-44m-4 18 5-19 19 5-5 19z" class="st0"/><path d="m537 2264-1 6 19 5-4-11 9-7-13-4m-4 13-7 4m355-1094-6-6 1-1c4-1 5-6 2-9-2-3-8-2-9 2h-1l-6-5h-1l-6 6-1-1c-1-3-4-4-5-4-7 1-7 9-2 11v1l-6 6v1l6 6 1-1c1-2 2-3 5-4 4 0 6 3 6 6-1 3-3 4-5 5v1l6 6h1l6-6 1 1c2 5 9 5 11-1 0-1-1-5-4-6v-1l6-6v-1zM166 965l-3 7h-1c-2-4-6-4-8-1-1 4 1 9 5 9l1 2-3 7v1l7 5v1c-2 2-2 6-2 7 3 7 10 5 10-1v-1l7 5h1l3-7-1-2c-2 0-4-1-5-4s0-7 3-7c2 0 4 1 5 3h2l2-7v-2l-7-5v-1c4-3 2-11-4-11-1 0-4 2-3 5l-1 1-7-5-1 1zm120 877v3l4 6-3 7v3h2l8-1 6 5 2 1 2-2 1-8 6-4 2-2-1-2-8-3-1-7-2-3c-1-1-2 1-3 1l-5 6c-2 1-6-1-7-1l-3 1z" class="st0"/><circle cx="299.5" cy="1850" r="22.1" class="st0"/><circle cx="299.5" cy="1850" r="27" class="st0"/><path d="M79 1480s22 37 33 72m-5-88s22 37 33 72" class="st0"/><path d="M81 1539s37-23 73-34m-89 6s37-23 73-34m-50-3 19 8m-7-13-6 17m20 10-6 18m-7-13 19 8" class="st0"/><ellipse cx="69.7" cy="1493.9" class="st0" rx="8.3" ry="7.3"/><ellipse cx="125.2" cy="1467.9" class="st0" rx="8.5" ry="6.8"/><ellipse cx="122.9" cy="1533.8" class="st0" rx="9.6" ry="9.4"/><path d="m85 1510-5 19m-7-14 19 8m473-260h0c3 0 4-3 3-5l-2-8c0-2-3-4-5-3h-1c-2 1-4 0-5-2l-4-6c-2-2-2-4-1-6h0c2-2 1-5-1-6l-6-4c-2-2-5-1-7 1h0c-1 2-3 3-5 2l-9-2c-2 0-3-1-4-3h0c0-3-3-5-5-4l-8 1c-2 1-4 3-4 6h0c1 2 0 4-2 5l-10 7c-2 2-4 2-6 1h0c-2-1-5 0-6 2l-4 6c-1 3-1 5 2 7h0c2 1 2 3 2 5l-1 10c0 2-2 4-4 4h0c-2 1-4 4-3 6l2 7c0 3 3 4 6 4v-1l5 2c1 3 3 5 5 6v6h0c-2 3-1 5 1 7l6 4c3 1 5 1 7-1v-1c1-2 4-2 6-2l8 2c2 0 4 2 4 4h0c1 3 3 4 6 4l7-2c3 0 4-3 4-5v-1c-1-2 0-4 2-5l10-7c2-1 4-2 6-1v1c3 1 6 0 7-2l4-7c1-2 0-5-2-6h0c-2-1-3-3-3-6l2-9c-1-2 1-4 3-5z" class="st0"/><circle cx="518.7" cy="1267.3" r="12.1" class="st0" transform="rotate(-23 519 1267)"/><circle cx="518.7" cy="1267.3" r="18.1" class="st0" transform="rotate(-23 519 1267)"/><path d="m1070 1492-44-16c-7-3-15 1-18 8l-11 29c-2 7 1 15 9 18l6 2v1l-5 14c0 2 1 4 3 3l21-11s0 0 0 0l19 7c7 3 15-1 18-8l10-29c3-8-1-16-8-18z" class="st0"/><path d="M1020 1531v-1l-6-2c-7-3-11-11-8-19l11-30 2-4c-5 1-9 4-11 9l-11 29c-2 7 1 15 9 18l6 2v1l-5 14c0 2 1 4 3 3l3-2 7-18h0zm40-23h0c-2-4-7-6-12-4l-3 1-1-1-1-2c-2-5-8-7-13-4h0c-4 2-6 7-4 12l9 19 2 1 19-9c4-3 6-8 4-13z" class="st0"/><path d="M412 1066h-7c-3 0-6 3-6 6v1c0 3 2 5 5 6h-4c-2-1-2-2-2-13 1-4 4-3 6-2 1 2 4 2 6 2l5-2v-5l-1-1-2 2c1 1 0 3-2 3l-4-1c-2-3-11-3-11 5 0 10 0 13 3 15 3 1 10 2 10-6h-3c-2 0-3-1-3-2v-2c0-1 1-2 3-2h7l2 2c0 5 1 8-1 11l-5 5-6 2c-8 0-14-5-14-13 0-7 0-13 2-17l-1-3v1h-2c-2 6-2 12-2 19 0 15 16 18 25 13 8-4 7-12 7-18 0-3-2-6-5-6zm-20-10h1l2-1 6-2c3 0 6 1 8 3h1c2 0 3-1 1-2-2-2-6-4-10-4a17 17 0 0 0-10 4l1 2zm38 0 2-1c0-2 2-1 3-1l2 1 2 1 1-2c-1-2-3-3-5-3h-1c-2 0-4 1-5 3-1 1 0 2 1 2zm4 14c-2 0-2 1-3 4l2 3h2c2 0 3-2 2-3 0-3-1-4-3-4z"/><path d="M440 1058c-1 0-2 1-1 2l10 26c1 1-1 3-2 3h-2l-3-1v-3c-1-2-2-2-12-2-4 0-2 6-6 6h-2c-1 0-3-1-2-3l10-26c1-1 0-2-1-2l-2 1-10 26c-1 3 1 7 5 7 5 0 6 0 8-6h9c1 5 2 6 8 6 3 0 6-4 5-7l-10-26-2-1zm54-2 2-1 2-2h19v1l2 1 1 1 2-2c-1-2-4-4-8-4h-13c-5 1-7 1-8 5l1 1zm23 24h-12v-2h9c3 0 6-3 6-6v-1c0-3-3-6-6-6h-9v-2h12c2 0 4-1 5-3l-2-2h1l-2 1-2 1h-13l-2 2c0 7-1 6 12 6 2 0 3 1 3 2v2l-3 2c-13 0-12-1-12 6l2 2h13c1 0 2 1 2 3v1c0 2-1 3-2 3h-19c-2 0-3-2-3-3v-27l-1-1-2 1v28c0 3 3 5 6 5h19c3 0 5-2 5-5v-2c0-3-2-5-5-5zm-1 36c2-4 3-9 1-13h-1l-2 2c2 4 1 11-4 13v4l5 8c1 2-1 4-2 4l-5-1c-7-13-7-13-9-13s-2 1-2 2c0 12 0 12-5 12l-2-2v-28l-2-1-1 1v28c0 2 2 5 5 5h2c3 0 6-3 6-6v-7c7 13 6 13 13 13 2 0 3-1 4-3 2-3 0-5-5-14l4-4zm-27-15 1-1c0-1 1-2 3-2h12c3 0 5 1 7 3h1c1 0 2-1 1-2-2-3-6-4-11-3l-10-1c-3 0-5 1-6 3 0 2 0 3 2 3z"/><path d="M505 1109v1h-6v-2h6v1c2 0 3-3 1-4h-1c-9 0-9-1-9 6 0 1 1 2 3 2h7c2-1 1-4-1-4zm-48-8 1-1 2-2h19l2 2 2 1c1 0 2-1 1-2 0-2-2-4-5-4h-19c-2 0-4 2-5 5l1 1h1zm22 7c3 0 5-2 5-3l-1-3-2 1-2 2h-12c-2 0-3 1-3 2 0 7 0 6 12 6 2 0 3 1 3 2v2l-2 2c-13 0-13-1-13 6 0 1 1 2 3 2h12l2 2v2l-2 2h-19l-2-2v-27l-2-2-1 2v27c0 3 2 6 5 6h19c3 0 5-3 5-6v-1c0-3-2-6-5-6h-12v-2h9c3 0 6-2 6-5v-2c0-3-3-5-5-5h-10v-2h12zm-44 7c0 2 3 2 4 0l4-11-2-2-1 1-3 9-3-9-1-1h-1l-1 2 4 11zm8-14 1-1c1-2 3-2 4-2l3 2 1 1c1 0 2-1 1-2 0-2-2-4-5-4-4 0-5 1-7 4l2 2z"/><path d="m451 1103-1 1-10 28-2 2c-2 0-3 0-4-2l-10-28-1-1-2 1 10 29c1 4 5 4 7 4s4-2 5-4l10-29-2-2zm-29-2 1-1c1-1 1-2 3-2 1 0 3 0 4 2l1 1c2 0 2-1 2-2-2-3-3-4-7-4-3 0-5 2-5 4-1 1 0 2 1 2zm-25 0h1c2-2 5-3 8-3s7 1 9 3h1c1 0 2-1 1-2l-3-2-8-2c-4 0-8 1-10 4v2h1zm12 14v7c0 1-1 3-3 3s-3-2-3-4c0-10-1-13 3-13 2 0 3 1 3 3l2 1 1-2c0-3-2-5-6-5l-3 1c-3 2-3 5-3 15 0 4 3 7 6 7 4 0 6-3 6-7v-6l-1-2-2 2z"/><path d="M419 1103c-1 0-2 1-1 2l1 6c0 10 1 17-6 22-4 2-10 2-14 0-7-5-6-13-6-22l1-6c1-1 0-3-1-3l-1 1c-2 5-2 8-2 18 0 22 32 22 32 0 0-6 1-13-2-18h-1zm59-48c1-2 3-1 7-1l2 1 2 1c1 0 2-1 1-2-1-2-3-3-5-3h-4c-3 0-5 1-5 4l1 1 1-1zm-8 15c0 2 4 2 4 0l3-11-1-2-2 2-2 7-2-7-1-2-2 2 3 11zm-13-15 2-1c4 0 6-1 7 1l1 1c2 0 2-1 2-2-1-2-3-3-5-3h-5c-3 0-5 2-5 5h1l2-1z"/><path d="m489 1058-1 1v28c0 1-1 2-3 2h-1l-2-2v-7c0-3-4-4-5-1-2 7-1 6-6 6l-2-2c-2-4-2-6-4-6-1 0-2 1-2 3v7c0 1-1 2-3 2h-1l-2-2v-28l-2-1-1 1v28c0 7 12 7 12 0v-3c1 3 3 4 5 4 3 0 6 1 8-4v3c0 7 12 7 12 0v-28l-2-1z"/><path d="M422 1852c11-7 23-10 29-8 10 3-14 44-17 49-4 5-17 0-15-7l12-24s-8 5-11 2c-3-6-5-8 2-12zm31 17c-6 7-10 28 5 36 16 7 25-14 27-21s-9-9-10-7c-2 2-7 18-12 16s2-18 1-20c0-3-9-6-11-4zm41 15-10 30c-1 4 9 8 12 3l3-6s16 8 19-10c4-16-24-17-24-17z" class="st0"/><path d="M503 1895s-3 7-2 8 6 2 7-3c2-4-5-5-5-5zm-79-39c2-2 12-6 16-7m-7 21-8 15m27 1 3-13 5 1m16 10s0-4 5-2m9 26 6-19s5-1 7 1" class="st0"/><circle cx="820.3" cy="1306" r="21.9" class="st0"/><path d="m812 1306 1-10 11 6 11 5-12 5-11 4z" class="st0"/><path stroke-width="3" d="m635 1341 27-59 106 50-27 59z" class="st0"/><path d="m682 1313-3 8-6 12-4 8-21-10s-2-9 3-17 10-10 10-10l21 9zm56 61-12-6h0l-8-4 3-8 6-12 3-7 21 9s2 7-1 15c-4 9-12 13-12 13z" class="st0"/><path stroke-width="3" d="m675 1341 11-25 40 19-12 24z" class="st0"/><path d="M654 1299h4l3-5 98 46-2 5 2 5m-89-11s0 0 0 0a14 14 0 1 1 11-25s0 0 0 0" class="st0"/><path d="m679 1321-6 12a7 7 0 0 1 6-12zm51 32c-1 3-5 4-9 3h0l6-12s0 0 0 0c4 1 5 5 3 9zm11-12c2 5 2 11 0 17-3 6-9 9-15 10m-63-47 6-13m72 50 6-13m-57-19 26 12m-29-7 27 13m-30-7 27 13m270-700c6 2 7 8 7 8v37l-3 4-30 17c-3 2-7 3-10 3l-8-3c-2-1-3-3-3-5v-38c0-2 1-4 3-5l5-2m10-6 15-8 4-2" class="st0"/><path d="M947 675c-3 0-5-3-5-5v-16l2-13c4-7 10-12 17-14 6-2 11-1 14 2 5 4 6 10 6 11v14c0 3-3 5-5 5s-5-2-5-5v-14l-2-3h-6c-4 1-7 3-9 8-2 3-2 6-2 9v16c0 2-2 5-5 5z" class="st1"/><path d="M939 675c2 5 10 6 19 1l25-15m-13 20c-3 2-4 6-4 7s1 4 3 4v10l5-4-1-8 2-6c0-3-3-4-5-3zM652 218v-2h0m-12-8h0-4c-6 0-18 7-24 20-6 12-7 25 2 32l2 1m35-41c-4 1-7 3-10 6l-9 9c-5 7-9 15-9 23m29-38 8 2c10 8 6 23-1 33-8 11-23 23-32 14l-2-3" class="st0"/><path d="M641 214c-8 1-15 10-19 16-7 9-12 22-6 31l2 2c2 2 4 3 7 3-2-2-2-5-2-8" class="st0"/><ellipse cx="650.1" cy="250.4" class="st0" rx="12.1" ry="5.3" transform="rotate(-52 650 250)"/><path d="M614 260h-12c-19-7-21-27-21-34l1-7 4-5c2-3 5-5 10-6 10-3 19 3 24 8" class="st0"/><path d="M588 222c-3 10 4 24 13 29m7-5c-4-1-9-6-11-12-3-8-1-17 5-19 4-1 10 2 13 7" class="st0"/><path d="M582 223s-1 0 0 0c-7 3-8 14-2 24 5 11 14 17 21 14l1-1m50-44v4h-1c-3 1-7 3-10 6a43 43 0 0 0-1-18l-3-7c-8-13-21-22-31-22s-21 5-23 16c-1 8 0 14 3 19l-4 5c-4-5-7-12-4-25 4-22 32-26 46-23 14 2 24 15 26 23l2 22zm0 0c2 0 4 2 5 5" class="st0"/><path d="M606 179a24 24 0 0 0-12 29m33 61s-23 23-48 19" class="st0"/><circle cx="571" cy="285.9" r="7.3" class="st0"/><path d="M597 220c2 1 11 4 12 13m-54 1317-15 11c-2 1-5 1-6-1l-9-12c-1-2-1-5 1-6l16-11 13 19z" class="st0"/><path d="m571 1539-16 11-13-19 19-13 11 16c1 2 1 4-1 5z" class="st0"/><path d="m561 1518-19 13-11-16c-1-2-1-4 1-5l16-11 13 19z" class="st0"/><path d="m577 1507-16 11-13-19 16-11c1-1 4-1 5 1l9 12c1 2 1 5-1 6zm-613 97 32 18-16 28c-1 2-3 3-5 2l-29-16 18-32z" class="st0"/><path stroke-width="3" d="m-36 1604 18-31 31 18-18 31z" class="st0"/><path d="m4 1543 24 14c2 1 3 4 2 6l-16 28-32-18 16-28c1-2 4-3 6-2zm1085 61 32 18-16 28c-1 2-4 3-6 2l-28-16 18-32z" class="st0"/><path d="m1061 1589 28 15-18 32-28-16c-2-1-2-3-1-5l14-25c1-2 3-3 5-1z" class="st0"/><path stroke-width="3" d="m1089 1604 18-31 31 18-17 31z" class="st0"/><path d="m1129 1543 24 14c2 1 3 4 2 6l-16 28-32-18 16-28c1-2 4-3 6-2zM70 1669l-16-7c-2-1-3-3-2-5l5-12c1-2 4-3 6-2l15 7-8 19z" class="st0"/><path stroke-width="3" d="m69 1669 9-19 19 9-8 19z" class="st0"/><path d="m105 1685-16-7 9-19 15 7c2 1 3 3 2 5l-5 12c-1 2-3 3-5 2zm-7-27-20-8 8-16c0-2 3-3 5-2l12 6c2 0 3 3 2 5l-7 15zM392 109l-20 4-4-16c0-3 1-5 3-5l13-3c2-1 4 1 5 3l3 17z" class="st0"/><path stroke-width="3" d="m372 114 20-5 5 20-20 5z" class="st0"/><path d="m377 134-17 3c-2 1-4-1-4-3l-3-12c-1-2 1-4 3-5l16-4 5 21zm36-9-17 4-4-20 16-4c2-1 5 1 5 3l3 12c0 3-1 5-3 5zm-15 25-13 3c-2 1-4-1-5-3l-3-16 20-5 4 16c0 2-1 5-3 5zM86 181l-15-5 4-12c1-2 3-3 5-2l12 4-6 15z" class="st0"/><path d="m101 187-15-6 6-15 11 4c2 1 3 3 3 5l-5 12zm-21 10-11-5c-2 0-3-3-3-5l5-11 15 5-6 16z" class="st0"/><path d="m92 201-12-4 6-16 15 6-4 12c-1 2-3 3-5 2zm549 1633-22 9-7-18c-1-2 0-5 2-5l15-6c2-1 4 0 5 2l7 18z" class="st0"/><path stroke-width="3" d="m620 1843 21-8 9 21-22 8z" class="st0"/><path stroke-width="3" d="m628 1864 22-9 8 22-21 8z" class="st0"/><path d="m664 1900-15 6c-2 1-4 0-5-2l-7-18 21-9 8 18c1 2 0 4-2 5zM824 13v24l-35 6V19zm-35 6v24l-10-20V-1z" class="st0"/><path d="m805-6 9-1 10 20-35 6-10-20 13-2" class="st0"/><path d="M789 1c0 2 1 4 3 5 5 3 13 3 18 0 5-2 5-7 0-10l-5-2m-13 3-3 4" class="st0"/><path d="M810 6c-5 3-13 3-17 0" class="st0"/><path d="M789 1v5c0 2 1 4 3 5 5 3 13 3 18 0 3-1 4-3 4-5V1m-22-4 1-1c3-2 8-3 12-2m19 2455v24l-35 6v-24zm-35 6v24l-10-20v-24z" class="st0"/><path d="m805 2430 9-1 10 20-35 6-10-20 13-3" class="st0"/><path d="M789 2437c0 2 1 4 3 5 5 3 13 3 18 0s5-7 0-10l-5-2m-13 3-3 4" class="st0"/><path d="M789 2437v5c0 2 1 4 3 5 5 3 13 3 18 0 3-1 4-3 4-5v-5m-22-4 1-1c3-2 8-3 12-2M468 1001l-10 19-29-9 9-19z" class="st0"/><path d="M429 1011v-20l9-19v20l-6 13m0 0-3 6m39-10-30-9v-20l11 4c-5 0-6 4-3 8 2 4 9 7 14 7s6-4 4-8l-4-4 8 2v20z" class="st0"/><path d="M460 991c-5 0-12-3-14-7-2-2-2-4-1-6l-2 4c-1 1-1 3 1 5 3 5 9 8 14 8l5-3 2-4c-1 2-3 3-5 3zm-11-15h1c3-1 7 1 10 3m181 772v10l-24 14v-11zm-24 13v11l-24-14v-10z" class="st0"/><path d="m641 1751-24 13-24-13 24-14z" class="st0"/><path d="M625 1751c-4 3-12 3-16 0-3-1-4-3-4-5v5c0 2 1 3 4 5 4 2 12 2 16 0 3-2 4-3 4-5v-5c0 2-1 4-4 5z" class="st0"/><path d="M625 1742c5 2 5 7 0 9-4 3-12 3-16 0s-5-7 0-9c4-3 12-3 16 0zm300 605 8 10-11 33-8-10z" class="st0"/><path d="m914 2380 8 10-34 7-8-10z" class="st0"/><path d="m925 2347-11 33-34 7 11-33z" class="st0"/><path d="M910 2361c-2 6-9 12-15 14-4 0-6 0-8-2l4 4c2 2 4 3 7 2 7-1 14-8 16-14 1-3 1-6-1-7l-3-5v8z" class="st0"/><path d="M902 2352c7-1 10 3 8 9s-9 13-15 14c-7 1-11-3-8-9 2-7 9-13 15-14z" class="st0"/><path d="m607 836-7 20-92-5 7-21c1-1 0-2-1-2l-2 1-6 20-21-25 10-30 7 8 2 1 1-3-7-8 9 1-1 2c-1 3 7 7 10 8h2l-1 6c-1 3 7 6 10 7l6 2-14-1-11-12-1-1c-1 0-2 2-1 3l10 12-2 6 1 2 2-1 2-6 21 1 2-1-2-2h-3c2 0 2-1 3-3 0-1 0-2-2-2l-1 1v1c-4 1-15-3-18-6l3-7c3-1 15 3 17 6l-1 3 2 2 1-1 1-4c2-4-8-7-12-8l-1-2h-1l-1 1c-3-1-7-1-8 1-5-1-9-3-10-5l2-7c4-1 15 3 18 6l-1 1 2 2 1-1 1-2h4c-1 3-2 5 2 7l9 4-1 5c-1 2 1 4 3 5l12 4-17-1-1 2 1 1 28 2 1-1-1-2h-5l2-3c1-1 0-2-1-2l-2 1v1c-3 1-15-3-17-6l2-7c4-1 15 3 18 6l-1 2c-1 1 0 2 1 2l1-1 1-3c2-3-8-7-12-8v-1c1-1 0-2-1-2l-1 1-1 1c-4-1-7-1-7 1-6-1-10-3-11-4l3-8c3 0 15 3 17 6v1l1 2 2-1v-2h4l-1 2c-1 4 9 8 13 9l-2 5c-2 4 12 9 16 9l-15-1-1 2 1 1 34 2-2 5 2 3 2-2 2-6-5-8h-2c-1 0-2 1-1 2l3 3-14-1 3-1v-2l-1-1h-1l-1 1h-1c-4 0-14-3-16-6l2-7c4-1 15 3 18 6l-2 4 1 1h2l1-4 3 3 1 1h1c1 0 2-1 1-2l-9-11-1-1c-2 0-2 2-2 3l1 1-7-3 1-2h-3l-1 1c-2 0-7-1-8 2l-10-5 2-8c4 0 15 4 18 6l-1 2 1 2 2-1 1-1 1 2h1a681 681 0 0 0-2-6h-2c-5-4-20-9-21-5l-1 3h-7c-5-3-20-9-21-4l-1 2h-7c-5-3-20-9-21-4l-1 3c-13-1-14-2-15-1l-11 34c-1 1-2 0 23 30l96 6 9-23-2-2-1 2z"/><path d="m571 796 12 4c2 0 2-3 1-3-10-2-12-6-14-3l1 2zm24 17c1 0 2-2 0-3-4 0-9-2-12-4-2-1-3 2-1 3 5 3 12 4 13 4zm-53-19c5 3 12 4 13 4 2 0 2-2 0-3-10-1-12-6-14-3l1 2zm23 18c2 0 2-3 0-3-10-2-12-6-13-4l1 2 6 3 6 2zm-52-20 12 4c2 1 3-2 1-3-4 0-8-2-11-3-2-1-3 1-2 2zm23 18 2-1c0-3-5-2-13-6-2-1-3 1-2 2l6 3 7 2z"/><circle cx="86.8" cy="108.5" r="1.8" class="st0"/><path d="M76 107a11 11 0 0 1 20-5" class="st0"/><path d="M67 103a21 21 0 0 1 35-9" class="st0"/><path d="M58 99c3-9 11-17 21-19 11-3 21 0 28 7m251 166-3 4c-7 9-25 18-37 16-6-1-12-8-15-13s-15-14-17-16c-3-1-15-10-12-21v-1c4-11 13-14 25-16 11-3 22 2 28 5l28 28c2 3 5 8 3 14z" class="st0"/><path d="M358 253c-7 7-25 17-36 15-13-2-22-23-25-27-3-5-10-11-18-13-4-1-5-3-5-5v-1c4-11 13-14 25-16 11-3 22 2 28 5l28 28c2 3 5 8 3 14z" class="st0"/><path d="M297 240c6-6 22-18 42-18h0" class="st0"/><path d="M320 226s13 14 18 24l6 13s1 12 12 14c9 1 22-12 31-1 7 8-12 28-10 29" class="st0"/><path d="M334 237c4 6 3 9 2 10s-4 0-8-5c-4-4-4-9-2-10 1-1 4 0 8 5z" class="st0"/><ellipse cx="156.2" cy="2184.9" class="st0" rx="36.4" ry="54.5" transform="rotate(-11 156 2185)"/><ellipse cx="156.2" cy="2184.9" class="st0" rx="20.8" ry="42.9" transform="rotate(-11 156 2185)"/><path d="M148 2143s8-4 19 4m-3 80s14-2 18-15m-48-67s-10 13-8 35m38-2048c-9 4-32 9-36 0-1-4-2-10 0-16 1-5 4-9 8-14 2-3 6-5 10-7l16-3c8 0 14 3 19 7l5 5c9 9-13 23-22 28z" class="st0"/><path d="M153 135s2 20 8 28c7 9 26 4 26-11s-16-24-16-24m-32-19a8 8 0 0 1-11 7c1-5 4-10 8-14 2 2 3 4 3 7z" class="st0"/><circle cx="155.4" cy="117.1" r="10.5" class="st0"/><path d="M181 99c-1 3-5 6-9 6a10 10 0 0 1-10-13c8 0 14 3 19 7zm775 8c8 2 14 8 14 15 1 12-6 26-14 32-6 4-14 1-14 1s-5 5-12 2-19-17-18-30c0-15 14-21 26-15l2-2" class="st0"/><path d="M934 118c3 1 9 1 12-1" class="st0"/><path d="M939 118s3-11-4-18" class="st0"/><path d="M940 112s-3-21 20-22c0 0 9 20-20 22zm-13 34c-3-2-7-9-8-13m0-9 1-3M726 629a36 36 0 1 1-24-34l-6 7c-1 1-2 3-1 5 2 5 8 9 14 9l3-1 7-7c4 5 7 13 7 21zm-46-26 5-1" class="st0"/><path d="M663 632v-3c0-8 4-16 10-21m46 0v-1c2-2 2-5 1-7-1-3-4-8-10-9-2 0-5 0-6 2l-3 2" class="st0"/><path d="M705 593c-2 4 3 13 15 12m-7-7c-1-7 1-18 14-15 20 6 27-3 23-10" class="st0"/><path d="m740 580-14-2 9-7-3-5 6-2v-14l11 9 6-4 1 6 15-3-9 11 6 4-7 1 4 15-12-9-1 12-7-8-5 6zm-385 975-3-226 48-21 83 14 2 37-31 28 10 61 26 17-2 27-82 5v75z" class="st0"/><path d="m406 1572 72-7v-72m-78-173 3 30-21 29 9 70 23 19v20m-4-136 64 7m-83 23 56 4m7 63h-29m-5 0h-19" class="st0"/><path d="M427 1440h27l-6-44-56-4 6 49 16-1m7 26 58-1m-60 58v18m-11-225 3 28 64 7-1-23zm24 142c0 2-4 4-9 4-4 0-8-2-8-4s2-3 5-3h0l3 3s0 0 0 0l2-3v0c4 0 7 1 7 3z" class="st0"/><path d="M447 1456v2h-5v-3h5v1h3v-1c1-4-11-5-12-1v3c-1 5 11 6 12 1v-2h-3zm14 0v2h-6v-3h5l1 1h3v-1c0-5-12-5-12 0v3c0 2 2 3 6 3 2 0 6-1 6-3v-2h-3z"/><path d="M420 1455v-6l-1-4m5-1 1 5v6" class="st1"/><circle cx="420.4" cy="1438" r="6.8" class="st1"/><ellipse cx="363.4" cy="1546.6" class="st1" rx="1.1" ry="1.6"/><ellipse cx="394.7" cy="1555.4" class="st1" rx="1.1" ry="1.6"/><ellipse cx="359.2" cy="1335.5" class="st1" rx="1.1" ry="1.6"/><ellipse cx="390.1" cy="1323" class="st1" rx="1.1" ry="1.6"/><path d="M-8 718c0 5 1 8 3 13 3 8 12 26 20 29s37 5 52 3 32-4 38-9c6-4 13-19 16-32 1-7-4-12-7-15l-23-15c-3-1-16 4-30 3-20 0-45-8-53-5-5 3-9 6-11 10" class="st0"/><path d="M8 741c1-14 9-26 19-31s39-1 39-1l2-3 15-1 6 4 16-1m-25-15-7-4m-17-11-11-5m-23-14c14 3 22 8 24 10l-1 4-6 15c-1 2-3 3-5 3-20-8-46-8-50-7m-6-17s-3-14 21-12" class="st0"/><path d="m-3 700-2-2-11-14c-3-5-5-9-4-12l2-6-4 1c-5 2-8 17-8 19s11 32 21 32c11-1 13-14 11-17l-5-1m-7-36c4-2 25-2 45 7" class="st0"/><path d="M72 694c8-27-4-41-11-46-4-4-17-9-29-9s-19 2-26 7c-4 3-6 6-6 8-1 1 1 3 3 3l17 3 3-3c3-4 8-11 18-10 15 1 17 34 13 48" class="st0"/><path d="M44 648s-16-8-30 0m5 86c2-6 8-19 25-18" class="st0"/><circle cx="79.5" cy="724.3" r="5.7" class="st0"/><circle cx="96.3" cy="742.5" r="5.7" class="st0"/><circle cx="58" cy="744.7" r="5.7" class="st0"/><path d="M1117 718c0 5 1 8 3 13 3 8 12 26 20 29 8 4 37 5 52 3s32-4 38-9c6-4 13-19 16-32 1-7-4-12-7-15l-23-15c-3-1-16 4-30 3-20 0-45-8-53-5-5 3-9 6-11 10" class="st0"/><path d="M1133 741c1-14 9-26 19-31s39-1 39-1l3-3 14-1 6 4 17-1m-26-15-7-4m-17-11-11-5m-23-14c14 3 22 8 24 10l-1 4-6 15c-1 2-3 3-5 3-20-8-46-8-50-7m-6-17s-3-14 21-12" class="st0"/><path d="m1122 700-2-2-11-14c-3-5-5-9-4-12l2-6-4 1c-5 2-8 17-8 19 1 2 11 32 22 32 10-1 12-14 10-17l-5-1m-7-36c4-2 25-2 45 7" class="st0"/><path d="M1197 694c8-27-4-41-11-46-4-4-17-9-29-9-11 0-19 2-25 7-4 3-7 6-7 8-1 1 1 3 3 3l17 3 3-3c3-4 8-11 18-10 15 1 17 34 13 48" class="st0"/><circle cx="1204.5" cy="724.3" r="5.7" class="st0"/><circle cx="1221.3" cy="742.5" r="5.7" class="st0"/><circle cx="1183" cy="744.7" r="5.7" class="st0"/><circle cx="647.9" cy="339.4" r="19.2" class="st0"/><circle cx="647.9" cy="339.4" r="11.3" class="st0"/><path d="m636 355-1 1-8 7m3-16-1 1-9 7m-1 13-7 6-16 13-2 1c-2 2-5 1-7-1v-3l1-4 25-19" class="st0"/><path d="m619 368-6-8c-2-1-1-4 1-6h0c2-2 5-1 6 1l7 8c1 2 1 5-1 6h0c-2 2-5 1-7-1zm-10 35-13-16 16-13 12 16-5 4-10-8 5 12zm218 664 7-5s0 0 0 0l3-2h2l1-1 10 1" class="st0"/><use xlink:href="#reuse-0" class="st0"/><use xlink:href="#reuse-0" class="st0"/><use xlink:href="#reuse-0" class="st0"/><use xlink:href="#reuse-0" class="st0"/><ellipse cx="808.5" cy="1042.5" class="st0" rx="77.5" ry="77.7"/><ellipse cx="808.5" cy="1042.5" class="st0" rx="62.8" ry="63"/><use xlink:href="#reuse-0" class="st0"/><use xlink:href="#reuse-0" class="st0"/><use xlink:href="#reuse-0" class="st0"/><path d="M840 1059s0 0 0 0h-1s0 0 0 0v1h-2l-3 2s0 0 0 0l-7 5 2 5c0 7-7 10-13 7-6 6-7 7-8 10 20-1 36-13 42-29l-10-1zm-66-44c26-7 52-2 76 15m-89 13c6 1 11 7 13 12" class="st0"/><path d="M774 1055c-1-1-4-10-13-12 0 20 10 34 25 41l-5-15m90-21s-8-9-21-18a92 92 0 0 0-77-15c-16 4-25 11-25 11" class="st0"/><path d="M780 1098c4 0 6-12 6-13v-1l-5-15m-7-14-1-2c-4-6-8-9-12-10h-11c-2 1-4 6-4 6m117 23c1-7-5-11-13-12a36 36 0 0 0-10-1h-1s0 0 0 0v1h-2l-2 1-1 1s0 0 0 0l-1 1s0 0 0 0l-6 4m-10 12-5 4-4 6-1 6c-1 7 1 11 1 11" class="st0"/><path d="m781 1069 5 15c-15-7-25-22-25-39v-2c4 1 8 4 12 10l1 2m0-40a93 93 0 0 1 76 15" class="st0"/><circle cx="802.3" cy="1043.1" r="11.4" class="st0"/><circle cx="786.8" cy="1022.6" r="4.8" class="st0"/><circle cx="825.6" cy="1029.8" r="4.8" class="st0"/><circle cx="778" cy="1062.2" r="7.7" class="st0"/><circle cx="798.2" cy="1067.6" r="2.7" class="st0"/><path d="M817 1079c-3-2-4-4-4-7a8 8 0 0 1 14-5" class="st0"/><circle cx="836.2" cy="1044.1" r="2.5" class="st0"/><circle cx="844.7" cy="1038.8" r="2.5" class="st0"/><circle cx="841.8" cy="1051.9" r="2.5" class="st0"/><circle cx="850.5" cy="1046.8" r="2.5" class="st0"/><path d="m773 1031-6-1v-6h-4v5l-5-1v5l5 1v6h4v-5l6 1zm-19 43 22 4m44 9 26 6m40-47 5 3 2 2 1 3 8 2m9 3 10 4 3 2 2 4-3 17-4 7c-1 4-5 6-9 5l-26-5-1 2c-1 3-5 4-9 4l-9-3m26-36-6 26M757 985s3 8 10 10m95 14s6-7 12-7" class="st0"/><path d="M900 1064s3 4 11 2m-8-9h0l-1 8m9-6h0l-2 8m-9-14 1 2c1 2 3 3 5 3 4 1 8 0 10-1s3-12 5-19c2-8 5-19-5-22s-14 3-15 6l-1 31z" class="st0"/><ellipse cx="911.8" cy="1022.6" class="st0" rx="3.4" ry="4.4" transform="rotate(-86 912 1023) scale(1.00004)"/><path d="M840 94h-25l-21 31h19l-19 30 54-44h-27zm-339-4 29-11 17 10-12 38-37-15z" class="st0"/><path d="m498 112 18-8 31-15" class="st0"/><path d="m501 90 12 15 4-21 17 12-4-17m4 17 1 31-21-22M932-11s-18 54 16 81c33-5 48-40 53-64l-31-20-38 3z" class="st0"/><path d="M938 0s-7 48 14 58c0 0 27-4 38-45L967-3l-29 3zm14 58 15-61m-35 2428s-18 54 16 81c33-5 48-40 53-64l-31-20-38 3z" class="st0"/><path d="M938 2436s-7 48 14 58c0 0 27-4 38-45l-23-16-29 3zm14 58 15-61M103 933c10 10 13 26 5 39a33 33 0 1 1-21-48" class="st0"/><path d="M106 956a26 26 0 0 1-52-2v-2l23 4c13 3 20-1 28-4l1 4z" class="st0"/><path d="m54 953 23 3c13 3 20-1 28-4" class="st0"/><circle cx="67.7" cy="961.8" r="2" class="st0"/><circle cx="76.7" cy="970.8" r="3.8" class="st0"/><circle cx="88.7" cy="964.1" r="2.5" class="st0"/><path d="m87 924 8-13m8 22 8-13m11-4h0c-2 5-8 6-12 4l-14-9c-5-2-6-7-4-12h0c3-4 8-5 13-3l14 8c4 3 5 8 3 12z" class="st0"/><path d="m103 895 8-17 20 12-11 15m-35 25s1 4 6 6c6 4 8 3 8 3" class="st0"/><circle cx="112.6" cy="886.4" r="1.4" class="st0"/><circle cx="120.1" cy="893.4" r="1.4" class="st0"/><circle cx="112.6" cy="895.3" r="1.4" class="st0"/><path d="m142 1422 3-1c18-4 29-24 24-46-5-20-22-34-39-32h0l-2 1h-2 0l-2 1" class="st0"/><path d="m142 1422-4 1c-17 4-35-11-40-32s5-42 22-45l1-1h3c-15 6-24 25-20 45 5 20 21 33 38 32z" class="st0"/><ellipse cx="136.5" cy="1382.4" class="st0" rx="26.7" ry="32.2" transform="rotate(-13 137 1382)"/><ellipse cx="136.5" cy="1382.4" class="st0" rx="20.2" ry="24.3" transform="rotate(-13 137 1382)"/><ellipse cx="136.5" cy="1382.4" class="st0" rx="13.8" ry="16.6" transform="rotate(-13 137 1382)"/><ellipse cx="136.5" cy="1382.4" class="st0" rx="8.4" ry="10.1" transform="rotate(-13 137 1382)"/><ellipse cx="136.5" cy="1382.4" class="st0" rx="2.5" ry="3" transform="rotate(-13 137 1382)"/><ellipse cx="398.8" cy="1240.4" class="st0" rx="10.1" ry="2.9" transform="rotate(-49 399 1240)"/><path d="m392 1248-7 9m35-40 6 2 10-11-11 2m-7 6-2-6 9-11v10m-263-66 10-1c2-1 12-11 14-27 2-17-8-28-7-43 1-6 5-13 5-18 1-5 0-12-6-13s-8 5-9 10v18c-4 16-19 25-21 40s0 24 4 30c3 3 7 3 10 4z" class="st0"/><path d="M170 1064h5l6 2m-12 3h5l5 2m-11 0 6 1 5 1m-12 3h6c3 0 5 2 6 3m-2-34c-2 1-4 4-4 9m-9 35c-2 3-10 10-11 19" class="st0"/><circle cx="548.5" cy="996.5" r="32.3" class="st0"/><path d="M527 1006a24 24 0 0 1 3-24" class="st0"/><ellipse cx="545.7" cy="974.3" class="st0" rx="4.3" ry="3.6" transform="rotate(-10 546 974)"/><ellipse cx="561.9" cy="973.2" class="st0" rx="2.4" ry="4.3" transform="rotate(-64 562 973)"/><circle cx="560.5" cy="996" r="4.6" class="st0"/><use xlink:href="#reuse-1" class="st0"/><use xlink:href="#reuse-1" class="st0"/><path d="m733 824-61 52a26 26 0 0 1-12-15l60-52 18-2-5 17zm-9-5-49 42m-31 32 16-13m-23 6 17-13m-10 20-3-4-4-3c-3-1-7 0-9 2-5 4-5 10-1 14 3 4 9 4 13 1 3-3 4-6 4-10z" class="st0"/><path d="M632 897v-4h4v5c-1 2-3 1-4-1z" class="st0"/><circle cx="999.3" cy="212" r="26.5" class="st0" transform="rotate(-81 999 212)"/><path d="M974 221s-15 4-22 17c-2 4-4 15 14 25 17 11 26 8 31 3s8-23 5-27" class="st0"/><path d="M955 242c2 5 17 22 38 22" class="st0"/><ellipse cx="987.1" cy="207.4" class="st0" rx="5.9" ry="5.4" transform="rotate(-58 987 207)"/><path d="M998 214c-4 5-11 7-16 4s-6-10-3-16c4-5 10-8 15-4 5 3 7 10 4 16z" class="st0"/><ellipse cx="967.1" cy="235.6" class="st0" rx="3.9" ry="2.6" transform="rotate(-47 967 236)"/><path d="m919 2234-25 37c-4 7-13 11-22 5l-119-80c-14-9-11-19-7-25l24-36c6-9 17-6 20-4l125 83c4 4 9 13 4 20z" class="st0"/><path stroke-width="3" d="m757 2199 41-62 109 72-41 63z" class="st0"/><circle cx="777.7" cy="2143.9" r="5.4" class="st0"/><circle cx="769.7" cy="2158.1" r="2.2" class="st0"/><circle cx="761.8" cy="2159.6" r="2.2" class="st0"/><circle cx="763.6" cy="2167.7" r="2.2" class="st0"/><circle cx="771.3" cy="2166.2" r="2.2" class="st0"/><circle cx="909" cy="2226.7" r="1.7" class="st0"/><circle cx="900.9" cy="2228.2" r="1.7" class="st0"/><circle cx="910.8" cy="2234.7" r="1.7" class="st0"/><circle cx="903.1" cy="2235.8" r="1.7" class="st0"/><circle cx="894.8" cy="2248.6" r="5.7" class="st0"/><path d="m854 2253-76-50c-3-3-4-7-2-10l24-37c2-3 7-4 10-2l76 51c3 2 4 6 2 9l-25 37c-2 3-6 4-9 2zM779 838l23 38 4 4 7 7 3 9 2 5 30 49c1 3 5 4 8 2l35-23c2-1 3-4 1-7l-31-51c-1-2 0-6-3-11s-6-4-9-7l-25-40c-1-2-3-2-5-2l-37 17c-4 1-6 6-3 10z" class="st0"/><path d="m785 836 21 35c2 3 9 4 12 9 3 6 1 9 5 15l29 48m-34-73 26-14m-16 33 27-15m-52-40 15-7 16 26-17 9-15-25c-1-1 0-3 1-3z" class="st0"/><circle cx="864.1" cy="892.9" r="3.8" class="st0"/><circle cx="841.8" cy="898.8" r="1.4" class="st0"/><circle cx="850.2" cy="901" r="1.4" class="st0"/><circle cx="839.8" cy="907.1" r="1.4" class="st0"/><circle cx="848.8" cy="910" r="1.4" class="st0"/><circle cx="24.3" cy="1770.3" r="46" class="st0"/><ellipse cx="24.2" cy="1770.3" class="st0" rx="46.7" ry="18.8" transform="rotate(-63 24 1770)"/><ellipse cx="24.2" cy="1770.3" class="st0" rx="18.8" ry="46.7" transform="rotate(-63 24 1770)"/><circle cx="24.3" cy="1770.3" r="1.5" class="st0"/><circle cx="1149.3" cy="1770.3" r="46" class="st0"/><ellipse cx="1149.2" cy="1770.4" class="st0" rx="46.7" ry="18.8" transform="rotate(-63 1149 1770)"/><ellipse cx="1149.2" cy="1770.4" class="st0" rx="18.8" ry="46.7" transform="rotate(-63 1149 1770)"/><circle cx="1149.3" cy="1770.3" r="1.5" class="st0"/><circle cx="808.7" cy="1547.5" r="21.5" class="st0"/><circle cx="808.7" cy="1547.5" r="30.9" class="st0"/><circle cx="808.6" cy="1547" r="1.5" class="st0"/><path d="M941 1543h0c-6-3-11-3-12 0v2h-2l-3-1c-5-4-10-4-11 0h0c-1 3 2 9 8 13l22 14h1l5-15c0-4-3-9-8-13z" class="st0"/><path d="M971 1596h-31c-5 0-11-4-14-9l-35-60c-3-5-2-10 3-10h31c5-1 11 4 14 9l35 60c3 5 2 9-3 10zm-746-93h0c4 1 8-2 8-7v-2l1-1h3c4 1 8-3 8-7h0c0-4-3-8-7-8l-18-2-1 1-1 18c-1 4 2 8 7 8z" class="st0"/><path d="m272 1512-27 23c-4 3-10 2-14-2l-39-46c-3-4-2-10 2-13l27-23c4-4 10-3 14 1l38 46c4 4 3 10-1 14z" class="st0"/><path d="m242 1503-4 3v-2l-3-8-1-2 2 2 7 4 2 1-3 2zm600 564c-1 3 0 6 2 9l20 21c2 2 5 2 8 1l25-12 14-30c1-2 0-5-2-6l-22-17c-3-2-7-2-10-2l-23 3c-3 0-5 3-6 6l-6 27z" class="st0"/><path d="m854 2041 24 21 27-7-27 7-9 31m14-62h0v-5l20-17c2-2 4-2 5-2h22c3 0 5 2 6 5l8 22c1 2 0 4-1 6l-15 21c-2 3-5 4-8 3l-10-4" class="st0"/><path d="m892 2031 18 2 21-19m-21 19 12 25" class="st0"/><ellipse cx="861.9" cy="2039" class="st0" rx="1.5" ry="3" transform="rotate(-82 862 2039)"/><ellipse cx="881.3" cy="2036.3" class="st0" rx="1.5" ry="3" transform="rotate(-82 881 2036)"/><ellipse cx="880.9" cy="2045.1" class="st0" rx="1.5" ry="3" transform="rotate(-82 881 2045)"/><ellipse cx="879.5" cy="2054.4" class="st0" rx="1.5" ry="3" transform="rotate(-82 880 2054)"/><ellipse cx="898" cy="2049.2" class="st0" rx="1.5" ry="3" transform="rotate(-82 898 2049)"/><ellipse cx="852.8" cy="2052.8" class="st0" rx="1.5" ry="3" transform="rotate(-2 853 2053) scale(.99998)"/><ellipse cx="882.8" cy="2071.3" class="st0" rx="3" ry="1.5" transform="rotate(-65 883 2071)"/><ellipse cx="891.5" cy="2068.8" class="st0" rx="3" ry="1.5" transform="rotate(-65 891 2069)"/><ellipse cx="900" cy="2065.9" class="st0" rx="3" ry="1.5" transform="rotate(-65 900 2066)"/><ellipse cx="895.4" cy="2079.1" class="st0" rx="3" ry="1.5" transform="rotate(-65 895 2079)"/><ellipse cx="887.6" cy="2082.5" class="st0" rx="3" ry="1.5" transform="rotate(-65 888 2082)"/><ellipse cx="879.7" cy="2085.5" class="st0" rx="3" ry="1.5" transform="rotate(-65 880 2085)"/><ellipse cx="856.6" cy="2067.3" class="st0" rx="1.5" ry="3" transform="rotate(-2 857 2067) scale(.99998)"/><ellipse cx="862" cy="2081.7" class="st0" rx="1.5" ry="3" transform="rotate(-2 862 2082) scale(.99998)"/><ellipse cx="893.3" cy="2025.5" class="st0" rx="2.6" ry="1" transform="rotate(-9 893 2026)"/><ellipse cx="901.1" cy="2019" class="st0" rx="2.6" ry="1" transform="rotate(-9 901 2019)"/><ellipse cx="908.1" cy="2012.7" class="st0" rx="2.6" ry="1" transform="rotate(-9 908 2013)"/><ellipse cx="920" cy="2012.6" class="st0" rx="2.6" ry="1" transform="rotate(-9 920 2013)"/><ellipse cx="913" cy="2019.6" class="st0" rx="2.6" ry="1" transform="rotate(-9 913 2020)"/><ellipse cx="905.8" cy="2026.4" class="st0" rx="2.6" ry="1" transform="rotate(-9 906 2027)"/><ellipse cx="931.4" cy="2035.7" class="st0" rx="1" ry="2.6" transform="rotate(-14 931 2036)"/><ellipse cx="907.3" cy="2040.7" class="st0" rx="1" ry="2.6" transform="rotate(-30 907 2041)"/><ellipse cx="914.3" cy="2056" class="st0" rx="1" ry="2.6" transform="rotate(-30 914 2056)"/><path d="m558 2153-16-14-14 21-9-13-21 60 57-32-15-5zm-37-433v10m0 25v10m22-23h-10m-24 0h-10m38 16-8-7m-17-17-7-7m0 31 7-7m17-17 8-7M363 343v13m0 34v13m29-30h-12m-34 0h-13m51 21-9-9m-24-24-9-9m0 42 9-9m24-24 9-9m8 21h-12m-34 0h-13m40-28-4 12m-13 32-4 12m38-17-12-5m-31-12-12-5m39 38-5-11m-13-32-5-11m-16 39 12-5m31-14 12-5m0 23-12-5m-31-12-12-5m536 408v-11h12m0 44h-12v-12m32-32h12v11m0 21v12h-12M582 2073h-15v-48h15m31 0h15v48h-15m332-839h0c5-2 10 3 7 8h0c-2 3 0 8 3 9h1c5 1 6 8 1 10h0c-4 2-5 6-3 9h0c4 5 0 11-5 10h0c-4-1-8 2-7 6h0c1 5-7 8-10 4h0c-2-3-7-3-9 1h0c-3 5-10 3-11-3h0c0-4-4-6-8-4h0c-5 2-10-4-7-8h0c2-4 0-8-3-9h0c-6-1-7-9-1-11h0c3-1 4-6 2-9h0c-4-4 0-11 5-9h0c4 1 8-2 7-6h0c-1-6 7-9 10-4h0c3 3 7 2 9-1h0c3-5 10-3 11 2h0c0 4 4 7 8 5z" class="st0"/><circle cx="924.5" cy="1258.8" r="20.9" class="st0"/><path d="m910 1285-21 15c-1 1-3 0-3-2l1-5c1-2-1-3-2-3h-4c-2-1-3-3-1-4l18-13m28 15-3 24c0 2-3 2-4 1l-2-4h-4l-4 3c-1 1-3 0-3-2l4-25" class="st2"/><path d="m934 1249-4-3h-1c-7 0-8 0-10 4-1 2 0 4 1 5h1l-3 5h-5c-1 1-5 5-1 8 11 6 13 9 17 3 1-3 0-4-2-5l3-6c1-1 0-2-1-2h-1l-5 9 3 2-1 2-1 1v-1l-10-6s-1 0 0 0v-1l1-1 1-1 3 3 7-13h-5l1-2 1-1h6l3 2-2 3 1 2h2l2-3-1-4z"/><path d="m977 747 16 47 1 2 39 23 4-1 11-9 1-2-11-53-2-2-42-16h-3l-13 8-1 3z" class="st0"/><path d="m982 748 38 16 13-9-13 9 14 52" class="st0"/><path d="m1002 738 1-6 2-4 27-17h4l42 37c2 2 3 5 2 7l-14 29-4 5-14 11m-55-52 7-5m8 11 7-5m-24 8 12 40m2-34 12 41m-29-39 30 15m-25 3 30 16m6-18 8-5m-3 24 8-5m-35-61 13 12" class="st0"/><path d="m1040 764 9 8 1 5-4 11" class="st0"/><path d="m1024 722 44 39-13 30m-1-19 21-16m-52-15 22-15m-2 28 17-13m-9 43 18-14m-19 22 13-10M224-6l-29 37c-1 2-1 4 1 5l63 50c1 1 4 1 5-1l29-38c1-1 1-4-1-5L230-7c-2-1-4-1-6 1z" class="st0"/><path d="m208 22 16-22 3-1h5l53 42 1 3 1 3-1 3-15 21c-1 2-4 2-6 1l-57-45c-1-1-2-4 0-5z" class="st0"/><path d="m236 20 30 23c3 3 3 7 1 10h0c-3 3-7 3-10 1l-30-23c-3-2-3-7-1-10h0c3-3 7-3 10-1z" class="st0"/><circle cx="231.8" cy="25.9" r="4.4" class="st0"/><circle cx="260.6" cy="48.6" r="4.4" class="st0"/><path d="m242 29-5 6 14 11 5-6zm-38 13 8-6 44 34-4 10" class="st0"/><circle cx="213.1" cy="45.4" r=".7" class="st0"/><circle cx="220.9" cy="49.8" r=".7" class="st0"/><circle cx="240.6" cy="65.2" r=".7" class="st0"/><circle cx="246.4" cy="71.8" r=".7" class="st0"/><path d="M244 76c0 5-8 21 14 27s20-9 32-9 20 11 20 24-10 17-23 17-18-20-5-25 29-4 35 9 1 34-15 37-46 3-49-27c-2-30-14-42-31-43s-18-17-10-20 14 1 16 9 15 17 16 1m-20 2354-29 37c-1 2-1 4 1 6l63 49c1 1 4 1 5-1l29-38c1-1 1-4-1-5l-62-49c-2-1-4-1-6 1z" class="st0"/><path d="m208 2458 16-22 3-1h5l53 42 1 2 1 4-1 3-15 21c-1 2-4 2-6 0l-57-44c-1-1-2-4 0-5z" class="st0"/><circle cx="231.8" cy="2461.9" r="4.4" class="st0"/><circle cx="260.6" cy="2484.6" r="4.4" class="st0"/><circle cx="213.1" cy="2481.4" r=".7" class="st0"/><circle cx="220.9" cy="2485.8" r=".7" class="st0"/><circle cx="240.6" cy="2501.2" r=".7" class="st0"/><circle cx="246.4" cy="2507.8" r=".7" class="st0"/><path d="M244 2512c0 5-8 21 14 27s20-9 32-9 20 11 20 24-10 17-23 17-18-20-5-25 29-4 35 8 1 35-15 38-46 3-49-27c-2-30-14-42-31-43s-18-17-10-20 14 1 16 9 15 17 16 1M995 404l-29-58 23-9 18 63zm7 17 12-4-4-11-13 5zm-252 87 2-6 6 9-11 2 2-5-94-44-1-10m6 2 1 10m5-8-1 10m-18 1 8-5m-3 7 8-5m-2 8 8-5m139 19 2-6 8 7-11 5 1-6-102-21-3-9m6-1 3 10m4-8 1 9m-17 5 6-6m-1 7 7-6m-1 8 7-7m70-25v-6l9 6-10 6 1-6-104-2-6-9m7-1 4 9m2-9 4 9m-17 8 6-7m0 7 5-7m1 7 5-7m-329 72 82 33 20-51-31 4-5-33-30 19-17-24zm7-18 81 32" class="st0"/><ellipse cx="415.9" cy="495.9" class="st0" rx="6.4" ry="4" transform="rotate(-68 416 496)"/><ellipse cx="386.3" cy="489" class="st0" rx="2.2" ry="3.6" transform="rotate(-8 386 489)"/><ellipse cx="442.3" cy="511.5" class="st0" rx="3.6" ry="2.2" transform="rotate(-38 442 511)"/><path d="m1004 566-35 8c-6 2-11-2-13-7l-8-35c-1-6 2-11 8-13l35-8c5-1 11 2 12 8l9 35c1 5-3 11-8 12z" class="st0"/><path d="m993 563-16 3c-8 2-15-3-17-10l-4-16c-2-8 3-15 11-17l16-4c7-2 15 3 17 11l4 15c2 8-3 16-11 18z" class="st0"/><path d="M983 556v1l-2 1h-1v-3h3v1l3-1c-1-2-2-4-4-4s-5 1-5 4c0 9 9 7 9 2v-1h-3zm2-21v2c0 4-4 5-5 6v5h-2l-1-5h1c10-3 3-18-7-10l-1-1c3-3 13-6 15 2h3c-3-12-18-8-20-4-2 2 0 9 4 6 3-4 8-3 7 1 0 4-5 2-5 6l2 7 3 1c6-1 5-3 4-6 4-2 6-6 5-11l-3 1z"/><path d="M276 345c-7 20-25 26-42 20-16-6-26-22-19-42 8-21 30-39 46-33 17 6 23 34 15 55z" class="st0"/><path d="m257 341-25-10c-3 0-4-3-3-6l5-15c1-3 4-4 6-3l26 9c3 1 4 4 3 6l-5 16c-1 2-4 4-7 3z" class="st0"/><circle cx="239.5" cy="349.5" r="2.1" class="st0"/><circle cx="226.9" cy="341.5" r="2.1" class="st0"/><circle cx="253.8" cy="350.4" r="2.1" class="st0"/><path d="m120 1103-11 26-3 2-27-11c-1-1-2-2-1-4l4-11 6-15 32 13z" class="st0"/><use xlink:href="#reuse-2" class="st0"/><use xlink:href="#reuse-2" class="st0"/><path d="m82 1105-11 4-4-2-8-27-8-28c-1-1 0-3 2-3l27-8c1-1 3 0 3 1l9 28 2 7" class="st0"/><path d="m83 1043 8 27-32 10-9-27 2-4 28-8c1-1 3 0 3 2z" class="st0"/><circle cx="109.8" cy="1081.8" r="1" class="st0"/><circle cx="103.8" cy="1070.9" r="1" class="st0"/><circle cx="114.4" cy="1091.8" r="1" class="st0"/><circle cx="94.5" cy="1101.2" r="1" class="st0"/><circle cx="109" cy="1107.7" r="1" class="st0"/><circle cx="89.1" cy="1114.8" r="1" class="st0"/><circle cx="103.5" cy="1121.2" r="1" class="st0"/><circle cx="70.1" cy="1085.4" r="1" class="st0"/><circle cx="85.4" cy="1081.3" r="1" class="st0"/><circle cx="72.3" cy="1092.4" r="1" class="st0"/><circle cx="87.5" cy="1088.3" r="1" class="st0"/><circle cx="74.4" cy="1099.4" r="1" class="st0"/><circle cx="60.8" cy="1055" r="1" class="st0"/><circle cx="76" cy="1050.9" r="1" class="st0"/><circle cx="70.6" cy="1059.9" r="1" class="st0"/><circle cx="65.1" cy="1068.9" r="1" class="st0"/><circle cx="80.3" cy="1064.8" r="1" class="st0"/><path d="m222 1578-68 130c-2 3 0 8 4 10l23 12c6 2 12 0 14-5l62-126c2-5 0-12-6-14l-22-10c-2-1-5 0-7 3zm30 17-64 129" class="st0"/><path d="m229 1596 2-5 6 3-3 5 5 2-3 6-5-2-2 6-6-3 3-6-6-2 3-6z" class="st0"/><circle cx="228.2" cy="1582.9" r="2.7" class="st0"/><circle cx="218.9" cy="1622" r="6.2" class="st0"/><circle cx="207" cy="1646" r="2.1" class="st0"/><circle cx="197.2" cy="1641.8" r="2.1" class="st0"/><circle cx="216.6" cy="1650.2" r="2.1" class="st0"/><circle cx="180.7" cy="1697.5" r="4.6" class="st0"/><circle cx="187" cy="1684.3" r="4.6" class="st0"/><path d="M-19 1980c-6-8-16-30-19-37-3-6-5-18 12-27l104-53c9-4 21-2 26 8l20 41c2 6 6 17-11 27s-90 46-103 52-22 1-29-11z" class="st0"/><path d="m-40 1934-1-2c-1-2 2-13 11-16l1 1m107-53 1-3c1-1 11-7 19 1v2" class="st0"/><path stroke-width="3" d="m-11 1927 87-43 22 44-87 43z" class="st0"/><circle cx="27.6" cy="1895.9" r="1.6" class="st0"/><circle cx="-25.6" cy="1936.9" r="5.1" class="st0"/><circle cx="91.7" cy="1878.5" r="5" class="st0"/><circle cx="99.1" cy="1889.1" r="1.9" class="st0"/><circle cx="95.8" cy="1897.1" r="1.9" class="st0"/><circle cx="107.2" cy="1891.6" r="1.9" class="st0"/><circle cx="104.1" cy="1899.5" r="1.9" class="st0"/><circle cx="58.6" cy="1957.7" r="2.8" class="st0"/><circle cx="49.7" cy="1962.1" r="1.4" class="st0"/><circle cx="67.4" cy="1953.3" r="1.4" class="st0"/><circle cx="100.6" cy="1936.7" r="1.6" class="st0"/><path d="m-12 1948-4 2-2-3-5 2 2 4-3 2 2 4 4-2 1 4 5-2-2-4 4-2zm1118 32c-6-8-16-30-19-37-3-6-5-18 12-27l104-53c9-4 21-2 26 8l21 41c3 6 5 17-12 27s-90 46-103 52-22 1-29-11z" class="st0"/><path d="m1085 1934-1-2c-1-2 2-13 11-16l1 1m107-53 1-3c1-1 11-7 19 1v2" class="st0"/><path stroke-width="3" d="m1114 1927 87-43 22 44-87 43z" class="st0"/><circle cx="1152.6" cy="1895.9" r="1.6" class="st0"/><circle cx="1099.4" cy="1936.9" r="5.1" class="st0"/><circle cx="1216.7" cy="1878.5" r="5" class="st0"/><circle cx="1224.1" cy="1889.1" r="1.9" class="st0"/><circle cx="1220.8" cy="1897.1" r="1.9" class="st0"/><circle cx="1232.2" cy="1891.6" r="1.9" class="st0"/><circle cx="1229.1" cy="1899.5" r="1.9" class="st0"/><circle cx="1183.6" cy="1957.7" r="2.8" class="st0"/><circle cx="1174.7" cy="1962.1" r="1.4" class="st0"/><circle cx="1192.4" cy="1953.3" r="1.4" class="st0"/><circle cx="1225.6" cy="1936.7" r="1.6" class="st0"/><path d="m1113 1948-4 2-2-3-4 2 1 4-3 2 2 4 4-2 2 4 4-2-2-4 4-2zm-110-903-1 20 1 2 7 15c0 1 2 3 4 3l92 10 4-1 29-19 2-2 7-14v-21c0-3-2-5-5-5l-99-9-3 1-36 15-2 5z" class="st0"/><path d="m1002 1062 114 12 32-20" class="st0"/><path d="m1090 1044-66-5-7 3v17l65 7" class="st0"/><path d="M1083 1092v-44l32-17" class="st0"/><path d="M1100 1094v-44l32-17m-112 41-1 4 10 1v-5zm14 0-1 6 10 1v-6z" class="st0"/><path d="m1108 1050 8 1 23-13m-23 13 1 17m-2 11-3 8m17-11 3-6 8-5-2 6zm-105-32 50 5m-1196-4-1 20 1 2 7 15c0 1 2 3 4 3l92 10 4-1 29-19 2-2 7-14v-21c0-3-2-5-5-5l-99-9-3 1-36 15-2 5z" class="st0"/><path d="m-123 1062 114 12 32-20" class="st0"/><path d="M-25 1094v-44l32-17m-112 41-1 4 10 1v-5zm13 0v6l10 1v-6z" class="st0"/><path d="m-17 1050 8 1 23-13m-23 13 1 17m-2 11-3 8m17-11 3-6 8-5-2 6zm-105-32 50 5m659 458v-2c-1-2 0-3 1-5 7-9 39-48 60-58h5l81 39 2 3v1l-1 4c-6 8-31 45-56 67h-5l-85-46c-2-1-2-2-2-3z" class="st0"/><path d="m611 1504 33 18s4-8 13-3l47 25-1 5-49-26c-4-1-8 2-9 3l52 28m10-14 25-32c9-11 21-22 21-22m-59 10 4-5 30 15-5 5z" class="st0"/><ellipse cx="675.1" cy="1537.7" class="st0" rx="2.2" ry="1.4" transform="rotate(-14 675 1538)"/><ellipse cx="693.4" cy="1547.7" class="st0" rx="2.2" ry="1.4" transform="rotate(-14 693 1548)"/><path d="m-31 2059 6 97-6 50c0 4 3 8 7 8l20 3h4l65-17c4-1 7-5 7-9l-5-76 4-38c0-4-2-7-6-8l-65-17h-4l-24 3c-2 0-4 2-3 4z" class="st0"/><path d="m1 2060-1 90-1 57m61-88-45 29-1 56 30-6 5-72m-65-63 2 77h7l-2-78zm-10 108h3l2 4-2 27c0 2-1 3-3 3l-5 1" class="st0"/><ellipse cx="-14.3" cy="2157.8" class="st0" rx="5.7" ry="7.8"/><path d="m22 2152 19-11m-20 19 19-8m-19 15 19-6m-19 13 18-5m-19 14 18-3m-16 11 15-3m1057-129 6 97-6 50c0 4 3 8 7 8l20 3h4l65-17c4-1 7-5 7-9l-5-76 4-38c0-4-2-7-5-8l-66-17h-4l-24 3c-2 0-4 2-3 4z" class="st0"/><path d="m1126 2060-1 90v57m60-88-45 29-1 56 30-6 5-72m-65-63 2 77h7l-2-78zm-10 108h3l2 4-2 27c0 2-1 3-3 3l-5 1" class="st0"/><ellipse cx="1110.7" cy="2157.8" class="st0" rx="5.7" ry="7.8"/><path d="m1147 2152 19-11m-20 19 19-8m-19 15 19-6m-19 13 18-5m-19 14 18-3m-16 11 15-3m-594 173-3 12 129 18 45-35 2-12-114-12z" class="st0"/><path d="m613 2380 3-12 54-31" class="st0"/><path d="m572 2374-9 5-2 11 129 20 46-39 2-10-4-1" class="st0"/><path d="m571 2380 41 5 81 12 39-31m-123 31 3-12m-37-22 34 4" class="st0"/><path d="m625 2369 71 9 39-29m-39 29-2 12m-1 7-3 13m-118-42 9 1m92 11v3l14 2 1-3z" class="st0"/><path d="m762 1698-6-32c2-4 1-7 0-10v-42c0-5-4-9-9-9l-89-1c-3 0-6 1-8 3s-3 5-3 8l2 2 1-2c0-4 4-8 8-8l89 1c3 0 6 3 6 6v43s2 4 0 8l6 34v4c-1 3-3 5-6 5l-100 1c-3 0-6-2-7-5l-1-2v-4l7-32s-4-5-1-9l-1-37-1-1-2 1 1 36c-2 4-1 8 1 10l-7 31 1 6v2c2 4 6 7 10 7l100-1c4 0 8-3 9-7v-6z"/><path d="m672 1619 1 35h59v-35z" class="st3"/><circle cx="701.9" cy="1612.1" r="1.5" class="st3"/><path d="M689 1631h7l-5 5s7 0 7 4c1 3-4 5-8 5m16-14v12s11 2 11-6-11-6-11-6zm-45 26s-3 5 0 8m82-8s3 4 1 8m-66 2h48l3 26h-54z" class="st3"/><ellipse cx="662.2" cy="1674.8" class="st3" rx="6.2" ry="4.5"/><ellipse cx="742.3" cy="1670.8" class="st3" rx="2" ry="1.1"/><ellipse cx="736" cy="1675.6" class="st3" rx="2" ry="1.1"/><ellipse cx="748.3" cy="1675.4" class="st3" rx="2" ry="1.1"/><ellipse cx="743.3" cy="1679.9" class="st3" rx="2" ry="1.1"/><ellipse cx="738.2" cy="1696.3" class="st3" rx=".7" ry=".4"/><path d="M652 1702h97m-91-16v-3h5v3l4 1v4h-5v3h-6l1-3-5-1 1-3zm8-26h71" class="st3"/><path d="m105 2266-14 30 5 16 84 10 8-13-3-34z" class="st0"/><ellipse cx="120.1" cy="2282.6" class="st0" rx="6.7" ry="8" transform="rotate(-83 120 2283)"/><ellipse cx="123" cy="2256.4" class="st0" rx="8.6" ry="8" transform="rotate(-83 123 2256)"/><path d="m123 2265-2 16-1 1v1l-2-2 2-16" class="st0"/><ellipse cx="141" cy="2293.2" class="st0" rx="5" ry="5.9" transform="rotate(-83 141 2293)"/><ellipse cx="157.1" cy="2288.1" class="st0" rx="5" ry="5.9" transform="rotate(-83 157 2288)"/><ellipse cx="172.4" cy="2283.7" class="st0" rx="5" ry="5.9" transform="rotate(-83 172 2284)"/><path d="m100 2300 77 9m744-516 2 1 7 5c3 1 3 4 2 7l-13 19c-6 8-16 8-24 8-3 0-6-2-7-4-3-8-7-18-1-27l12-18c2-2 5-3 7-2l8 5 2 1" class="st0"/><path d="m913 1792-12 19c-2 2-1 4 1 5h0c2 1 4 1 5-1l12-18" class="st0"/><path stroke-width="3" d="m924 1776 40-60 6 4-40 60z" class="st0"/><path d="m968 1719-3-2c-6-4-7-12-4-17l3-4 24 16-2 4c-4 6-12 7-18 3z" class="st0"/><path d="m972 1716-5-3c-3-2-4-6-2-9l1-1 15 10v1c-2 3-6 4-9 2zm-51 77-6-4m-1-1 8-13 2 1m6 4 2 1-9 13m-151-625c-16 10-27 19-23 28l1 1c3-8 15-14 26-21m9-15c18-7 32-11 38-3-10-1-21 5-34 11m-17-1-2-4 13-7 2 4m-9 15 2 4 3-1 8-5 2-1-2-4" class="st0"/><path d="m789 1175 33 65-8 4-33-64zm156-321-5 2-2-4c-2-4-6-6-10-4s-5 6-3 9l2 5-5 2c-4 2-6 6-4 9h0c1 4 6 6 9 4l5-2 2 5c2 4 6 5 10 4s5-6 3-10l-2-4 5-3c4-1 5-5 4-9h0c-2-3-6-5-9-4z" class="st0"/><path d="M932 875s-10 13 2 19m-3-41 9 24m-16-7 22-8m-613 833-9-25 54-56 50 50-58 61zm60-62-60 62" class="st0"/><ellipse cx="370.1" cy="1690.9" class="st0" rx="18.6" ry="16.9" transform="rotate(-46 370 1691)"/><ellipse cx="368.7" cy="1689.1" class="st0" rx="4.7" ry="4.3" transform="rotate(-46 369 1689)"/><ellipse cx="399.6" cy="1660.3" class="st0" rx="9.9" ry="8.9" transform="rotate(-46 400 1660)"/><path stroke-width="3" d="m43 1251 6-4 3 7-6 3z" class="st0"/><path stroke-width="3" d="m48 1247 6-3 3 6-6 3z" class="st0"/><path stroke-width="3" d="m54 1244 6-3 3 6-6 3zm10 3 6-3 3 6-6 3zm3 6 6-3 3 6-6 3zm-3 9 6-3 3 6-6 3z" class="st0"/><path stroke-width="3" d="m58 1265 6-3 3 6-6 3zm-12-8 6-3 4 6-7 3z" class="st0"/><path stroke-width="3" d="m49 1263 6-3 4 6-7 3z" class="st0"/><path stroke-width="3" d="m52 1268 6-3 3 6-6 3zm3 6 6-3 3 6-6 3zm17-40 6-3 3 6-6 3z" class="st0"/><path stroke-width="3" d="m78 1231 6-3 3 6-6 3z" class="st0"/><path stroke-width="3" d="m84 1228 6-3 3 6-6 3zm10 3 6-3 3 6-6 3zm3 6 6-3 3 6-6 3zm-3 9 6-3 3 6-6 3zm9 3 6-3 3 6-6 3z" class="st0"/><path stroke-width="3" d="m88 1249 6-3 3 6-6 3zm-12-9 6-3 3 6-6 3zm3 6 6-3 3 6-6 3z" class="st0"/><path stroke-width="3" d="m82 1252 6-3 3 6-6 3zm3 6 6-3 3 6-6 3zm69-18 6-3 3 6-6 3z" class="st0"/><path stroke-width="3" d="m160 1237 6-3 3 6-6 3z" class="st0"/><path stroke-width="3" d="m166 1234 6-3 4 6-7 3zm10 2 6-3 3 6-6 3zm3 6 6-3 3 6-6 3zm-3 10 6-3 4 6-7 3z" class="st0"/><path stroke-width="3" d="m185 1254 6-3 3 6-6 3zm-15 1 6-3 3 6-6 3zm-12-9 6-3 3 6-6 3zm3 6 6-3 3 6-6 3z" class="st0"/><path stroke-width="3" d="m164 1258 6-3 3 6-6 3zm3 6 6-3 3 6-6 3zm-38-10 6-3 4 6-7 3z" class="st0"/><path stroke-width="3" d="m135 1250 6-3 3 6-6 3zm9 3 6-3 3 6-6 3zm4 6 6-3 3 6-6 3zm-3 10 6-3 4 6-7 3z" class="st0"/><path stroke-width="3" d="m151 1265 6-3 3 6-6 3zm3 6 6-3 3 6-6 3zm-15 1 6-3 3 6-6 3zm-13-9 6-3 3 6-6 3zm4 6 6-3 3 6-6 3z" class="st0"/><path stroke-width="3" d="m133 1275 6-3 3 6-6 3zm3 6 6-3 3 6-6 3zm-34-63 6-3 3 6-6 3z" class="st0"/><path stroke-width="3" d="m108 1215 6-3 3 6-6 3z" class="st0"/><path stroke-width="3" d="m114 1212 6-3 3 6-6 3z" class="st0"/><path stroke-width="3" d="m120 1209 6-3 4 6-7 3zm-5 18 6-3 3 6-6 3z" class="st0"/><path stroke-width="3" d="m121 1224 6-3 3 6-6 3zm0 15 6-3 3 6-6 3z" class="st0"/><path stroke-width="3" d="m127 1236 6-3 3 6-6 3z" class="st0"/><path stroke-width="3" d="m133 1233 6-3 4 6-7 3zm-27-9 6-3 3 6-6 3zm3 6 6-3 3 6-6 3zm3 6 6-3 3 6-6 3zm3 6 6-3 3 6-6 3zm23-43 6-3 3 6-6 3z" class="st0"/><path stroke-width="3" d="m144 1196 6-3 3 6-6 3z" class="st0"/><path stroke-width="3" d="m150 1193 6-3 4 6-7 3zm-5 18 6-3 3 6-6 3z" class="st0"/><path stroke-width="3" d="m151 1208 6-3 3 6-6 3zm0 15 6-3 3 6-6 3z" class="st0"/><path stroke-width="3" d="m157 1220 6-3 4 6-7 3zm-21-12 6-3 3 6-6 3zm3 6 6-3 3 6-6 3zm18-9 6-3 4 6-7 3z" class="st0"/><path stroke-width="3" d="m160 1211 6-3 4 6-7 3zm-15 15 6-3 3 6-6 3zm23-43 6-3 3 6-6 3z" class="st0"/><path stroke-width="3" d="m174 1180 6-3 4 6-7 3z" class="st0"/><path stroke-width="3" d="m180 1176 6-3 3 6-6 3zm-5 19 6-3 3 6-6 3z" class="st0"/><path stroke-width="3" d="m181 1192 6-3 3 6-6 3zm0 15 6-3 3 6-6 3z" class="st0"/><path stroke-width="3" d="m187 1204 6-3 4 6-7 3zm-21-12 6-3 3 6-6 3zm3 6 6-3 3 6-6 3zm18-10 6-3 3 6-6 3zm3 6 6-3 3 6-6 3zm-15 16 6-3 3 6-6 3zm-106 76 6-3 3 6-6 3z" class="st0"/><path stroke-width="3" d="m75 1283 6-3 3 6-6 3z" class="st0"/><path stroke-width="3" d="m81 1280 6-3 4 6-7 3zm-5 18 6-3 3 6-6 3z" class="st0"/><path stroke-width="3" d="m82 1295 6-3 3 6-6 3zm0 15 6-3 3 6-6 3z" class="st0"/><path stroke-width="3" d="m88 1307 6-3 3 6-6 3zm-22-12 6-3 3 6-6 3zm4 6 6-3 3 6-6 3zm18-10 6-3 3 6-6 3zm3 6 6-3 3 6-6 3zm-15 16 6-3 3 6-6 3zm23-43 6-3 3 6-6 3z" class="st0"/><path stroke-width="3" d="m105 1274 6-3 3 6-6 3zm4 6 6-3 3 6-6 3zm3 6 6-3 3 6-6 3zm3 6 6-3 3 6-6 3z" class="st0"/><path stroke-width="3" d="m105 1267 6-3 4 6-7 3z" class="st0"/><path stroke-width="3" d="m111 1263 6-3 3 6-6 3zm-18 10 6-3 3 6-6 3zm96-52 6-3 3 6-6 3zm6 5 6-3 3 6-6 3z" class="st0"/><path stroke-width="3" d="m199 1232 6-4 3 7-6 3zm3 6 6-3 3 6-6 3zm3 6 6-3 3 6-6 3zm-10-26 6-3 3 6-6 3z" class="st0"/><path stroke-width="3" d="m201 1215 6-3 3 6-6 3zm-18 10 6-3 3 6-6 3z" class="st0"/><path d="M923 1390h-21c-5 0-10-5-10-10v-21c0-5 5-10 10-10h21c5 0 10 5 10 10v21c0 5-5 10-10 10zm-27 40h-20c-6 0-10-4-10-10v-20c0-6 4-10 10-10h20c6 0 10 4 10 10v20c0 6-4 10-10 10zm41 0h-21c-5 0-10-4-10-10v-20c0-6 5-10 10-10h21c5 0 10 4 10 10v20c0 6-5 10-10 10zm40 0h-20c-6 0-10-4-10-10v-20c0-6 4-10 10-10h20c6 0 10 4 10 10v20c1 6-4 10-10 10z" class="st0"/><path d="M884 1412h4l-2-7z"/><path d="m896 1416-3-8-2-6c0-1-1-3-4-3h-2c-3 0-4 2-4 3l-1 2 2 2 1-1 1-3h3l6 15-1 1h-1c-2 0-1-1-2-4h-6l-2 4h-1l-1-2 3-7-2-1h-1l-2 8v3c1 2 3 2 3 2h2c2 0 3-2 4-4h1c0 2 1 4 4 4h2c2 0 2-1 3-2v-3zm27-48-1 1-2 8-2 1h-1c-2 0-2-1-4-10-2 9-2 10-4 10h-2l-1-1-4-14h4l2 12 4-12h2l3 12 4-12h2v1l2 2 1-2v-3l-3-1h-2c-1 0-3 0-4 2 0-2-2-2-3-2h-2c-2 0-3 0-3 2l-2-2h-3l-3 1-1 2 3 15c1 1 2 3 4 3h2l4-2 4 2h2c2 0 3-2 4-3l2-8-2-2zm42 37h-1v10h1c2 0 5 0 5-5s-3-5-5-5z"/><path d="M966 1399h-3c-4 0-5 3-5 4v1l1 1c1 1 2 0 2-1v-1l2-1h3c5 0 7 3 7 8 0 7-4 8-9 8h-2l-1-9-2-2-1 2v2l1 9 3 1h3l7-2c3-2 4-5 4-9 0-7-4-11-10-11zm-34 9h1l1-5-3-3-4-1c-3 0-6 1-7 4-1 1 0 2 1 2l2-1 4-2 3 1 1 1v2h-1v-1h-3l-2 1c0 2 2 2 4 3 5 2 3 9-3 9h-1c-3-1-3-2-3-3v-1h1l3 1c3 0 4-2 1-4h-2l-3-3-1-1-2 2 2 3c-1 0-2 1-2 4s2 4 5 5h2c4 0 8-2 8-6 1-3 0-5-2-7z"/><path d="m276 686 8-2c2-1 3 1 3 3l-3 8-2 8c-1 2-3 2-4 1l-6-6-6-6c-1-1 0-4 2-4l8-2zm-7-28-8 2c-2 1-4-1-3-3l2-8 3-8c0-2 2-2 4-1l5 6 6 6c1 2 1 4-1 4l-8 2zm-10 18 2 8c0 2-2 3-3 3l-9-3-8-2c-1-1-2-3-1-4l6-6 7-6c1-1 3 0 4 1l2 9zm27-7-2-8c0-2 1-4 3-3l8 2 8 2c2 1 3 3 1 4l-6 6-6 6c-1 1-3 1-4-1l-2-8z" class="st2"/><circle cx="1095.6" cy="853.4" r="12.8" class="st3"/><path d="M1107 847c1-3 4-5 8-6h2c8 0 13 5 13 12a13 13 0 0 1-23 7" class="st3"/><path d="M1096 845c0-11 3-23 23-33 0 0-13 20-1 33m-25 0h5" class="st3"/><path d="M1115 846s4 0 4-2m-15-21c-4-7-15-8-23 2 0 0 12 12 23-2z" class="st3"/><circle cx="-29.4" cy="853.4" r="12.8" class="st3"/><path d="M-18 847c1-3 4-5 8-6h3c7 0 12 5 12 12a13 13 0 0 1-23 7" class="st3"/><path d="M-10 846s4 0 4-2m-15-21c-4-7-15-8-23 2 0 0 12 12 23-2zm493-242h0c-3-2-3-6 0-8l7-7 8 8-7 7c-2 2-6 2-8 0z" class="st3"/><path stroke-width="3" d="m479 566 4-3 8 8-4 4z" class="st3"/><path d="m486 567 8-8m52 11h0c1-3 4-5 7-4l10 2-3 12-10-3c-3-1-5-4-4-7z" class="st3"/><path stroke-width="3" d="m559 579 4-11 5 1-4 12z" class="st3"/><path d="m566 575 10 3m-49 29h0c1 3-1 6-4 7l-9 4-4-12 9-3c3-1 7 1 8 4z" class="st3"/><path stroke-width="3" d="m505 608 5-1 4 11-5 2z" class="st3"/><path d="m508 613-11 4m-25-36c-15 11-8 36 18 18s40-21 45-13-2 16-8 20" class="st3"/><path d="M508 588c9-6 22-24 38-18" class="st3"/><path d="M318 547H194c-5 0-9-4-9-9v-83c0-5 4-9 9-9h124c5 0 9 4 9 9v83c0 5-4 9-9 9zm-4 0v12H197v-12" class="st0"/><path d="M286 536h-79c-7 0-12-5-12-11v-56c0-6 5-11 12-11h79c7 0 12 5 12 11v56c0 6-5 11-12 11z" class="st0"/><path d="M205 492v-15c0-6 6-12 12-12" class="st0"/><circle cx="311.9" cy="469.9" r="4.8" class="st0"/><circle cx="311.9" cy="487.9" r="4.8" class="st0"/><path d="M307 509h10m-10 6h10m-10 7h10m-10 6h10m-79-82a18 18 0 0 1 35 0" class="st0"/><path d="m236 403 20 29 30-37" class="st0"/><path d="M196 554c-39 6-61-20-41-46 16-22 12-42 0-49-11-7-28 0-38 14" class="st3"/><path stroke-width="3" d="m107 478 5-7 10 6-5 8z" class="st3"/><path d="m105 486 4-5m1 9 4-6m187 530h0c-3 1-6 0-8-3l-9-17c-1-2 0-6 3-7h0c3-2 7-1 8 2l9 17c1 3 0 6-3 8z" class="st3"/><path d="M315 1014h0c-3 2-6 1-8-2l-15-29c-2-3-1-6 2-8h0c3-1 7 0 8 3l16 28c1 3 0 7-3 8z" class="st3"/><path d="M331 1018h0c-3 2-7 1-8-2l-25-48c-2-3-1-6 2-8h0c3-1 7 0 8 3l25 47c2 3 1 7-2 8zm60-51h0c3-1 4-5 2-8l-9-17c-1-3-5-4-8-2h0c-3 1-4 5-2 8l9 17c1 2 5 4 8 2z" class="st3"/><path d="M383 979h0c3-2 4-5 3-8l-15-29c-2-3-5-4-8-3h0c-3 2-4 5-3 8l15 29c2 3 5 4 8 3z" class="st3"/><path d="M378 994h0c3-2 4-6 2-8l-25-48c-1-3-5-4-8-3h0c-3 2-4 5-2 8l25 48c1 3 5 4 8 3zm19-42-6 3-5-9 6-3c2-1 5 0 7 2h0c1 3 0 6-2 7zm-106 55-5 3c-3 1-6 0-7-2h0c-1-2 0-5 2-7l6-3 4 9z" class="st3"/><path stroke-width="3" d="m318 982 37-19 4 9-36 19z" class="st3"/><path d="M466 2299c-7 3-8 9-2 14 2 2 8 3 12 1" class="st0"/><path d="M432 2351c-8-6-11-18-13-27-4-13-2-25 2-30l5-2 29-10c7 1 23 3 27 18 2 8-1 12-6 14 0 0 7 15 2 24s-17 13-35 15c-4 0-8 0-11-2" class="st0"/><path d="M461 2311c-4 0-26 3-30 12s1 17 1 17m8-52c3 1 10 17 2 19-8 1-2-14-5-18" class="st0"/><path d="M455 2282s-2-8-5-11-6-4-14 0l-16 5c-3 2-5 4-4 7l3 8 3 4" class="st0"/><path d="m432 2351-4 2c-10 4-34 7-41-1-6-8-7-17-7-21 0 0-8-1-10-11s9-24 18-27l31-2 2 3 5-2" class="st0"/><path d="M390 2293c-3 0-3-9-2-12s11-4 17-5h15m-40 55s0-10 5-15" class="st0"/><path d="m405 2277 2-44 26 39-26-39s-1-5-9-7" class="st0"/><path d="M414 2223c-9 2-8 10-8 10s-5-2-10 0c-5 1-5 8 0 7 5 0 11-7 11-7h0s6-6 12-5 5 7 0 8-13-3-13-3m-29 80c0-2 3-7 7-10m102-237-122 18c-4 1-7-2-7-5l-10-66c-1-3 2-6 5-7l122-18c4 0 7 2 7 5l10 66c1 3-2 7-5 7z" class="st0"/><path d="m480 2058-113 17c-3 0-7-2-7-6l-8-51c0-4 2-7 6-7l112-17c4-1 7 2 7 5l8 52c1 3-2 6-5 7zm42 43-182 27 16-40c1-1 3-3 5-3l128-19c2-1 4 0 5 2l28 33z" class="st0"/><path d="m491 2088-126 18 7-17 3-1 102-16 2 1 12 15zm-35 19-52 8 2-10 1-1 43-7 1 1 5 9zm61 3-171 25c-3 1-5-1-6-5v-2l181-27 1 2c0 3-2 6-5 7zm507-159-111-38c-2-1-4-4-3-7l19-52c1-3 4-4 6-3l111 38c3 1 4 4 3 7l-18 52c-1 3-4 4-7 3z" class="st0"/><path d="m1019 1942-96-34c-2-1-4-3-3-6l14-39c1-2 3-4 6-3l95 33c3 1 4 4 3 6l-13 40c-1 2-4 3-6 3z" class="st0"/><path stroke-width="3" d="m950 1945 6-17 29 10-6 17z" class="st0"/><path d="m986 1965-49-17c-2-1-2-3-2-4h0c1-2 3-3 4-2l49 17c2 0 3 2 2 4h0c0 2-2 2-4 2zm56 229h0c-7-1-13 3-15 10l-1 3-1 2-4-1c-7-1-14 3-15 10h0c-1 6 3 13 10 14l28 6c1 1 2 0 2-1l6-28c1-7-3-13-10-15zm-15-9 4 5m1-4-6 4m6-17 4 7m2-6-8 5m-9-7 3 5m0-4-4 3" class="st0"/><path d="M1016 2214c-4 2-6 9 0 12m80-1702a14 14 0 0 1-12-8 14 14 0 0 1 26-11 14 14 0 0 1-4 16" class="st0"/><path d="M1090 516c-4-6-1-14 6-15m14 16c1-1 3 0 4 1v1l-1 2h-2m-18 3-2 2 1 1c0 2 1 2 2 2l2-1m34 20h1c2-1 4 0 5 1v3l-2 2m-30 13c-2 0-4 0-5-2v-3l2-1 2-1" class="st0"/><path d="m1134 554 2-1c2-1 4 0 5 2v2l-2 2-35 15c-2 1-4 0-5-2v-2l2-2 3-1m-7-39s2 0 3 4c1 3 3 10 1 20 0 0-2 5 2 8m8-39s-1 2 1 5c2 4 5 10 14 15 0 0 5 2 4 7m-21 9 14-6m-14 13 19-8M-29 524a14 14 0 0 1-12-8 14 14 0 0 1 26-11 14 14 0 0 1-4 16" class="st0"/><path d="M-35 516c-4-6 0-14 6-15m14 16c1-1 3 0 4 1v1l-1 2h-2m-18 3-1 2v1c0 2 1 2 2 2l2-1m34 20h1c2-1 4 0 5 1v3l-2 2m-30 13c-2 0-4 0-5-2v-3l2-1 2-1" class="st0"/><path d="m9 554 2-1c2-1 4 0 5 2v2l-2 2-35 15c-2 1-4 0-5-2v-2l2-2 2-1m-6-39s2 0 3 4c1 3 3 10 0 20 1 0-1 5 3 8m8-39s-1 2 1 5 5 10 14 15c0 0 5 2 4 7m-21 9 14-6m-14 13 19-8" class="st0"/><circle cx="28.6" cy="1411" r="13.9" class="st0"/><path d="m20 1411 1-4c1-3 4-5 8-5m-13 15s-5-2-6-1l-1 3v2c1 2 4 6 10 9l12 3 3-1 1-3-3-4" class="st0"/><path d="m13 1426-9 12-13 10v3l12 9 14 5c1 0 2-1 2-3l2-16 4-14" class="st0"/><path d="m-6 1445-6-1c-2 0-4 1-5 3l-2 2v6c2 4 7 10 17 15s17 6 21 5c2 0 4-1 5-3l1-2v-6l-5-5" class="st0"/><circle cx="1153.6" cy="1411" r="13.9" class="st0"/><path d="m1138 1426-9 12-13 10v3l12 9 13 5c2 0 3-1 3-3l2-16c1-6 5-14 5-14" class="st0"/><path d="m1119 1445-6-1c-2 0-4 1-5 3l-2 2v6c2 4 7 10 17 15s17 6 21 5c2 0 4-1 5-3l1-2v-6l-5-5m-394 619c-4 8-10 12-17 14a28 28 0 0 1-34-18c-2-6-1-14 2-21s9-11 16-13c7-3 14-2 21 1s11 9 13 15c3 7 3 15-1 22z" class="st0"/><ellipse cx="743.1" cy="2074.3" class="st0" rx="20.4" ry="9" transform="rotate(-63 743 2074)"/><ellipse cx="709.3" cy="2057" class="st0" rx="19.4" ry="8" transform="rotate(-63 709 2057)"/><path d="M714 2049s6-2 9-1m-10 9 9 2m-12 4 5 6m-10-1 3 7m33-19c2 1 5 4 6 7m-13 1 7 4m-13 6 9 1m-9 9s4-2 8-1m95 263-1 6a25 25 0 1 1-18-29c11 2 19 12 19 23z" class="st0"/><path d="m831 2346-1 6a25 25 0 0 1-18-29c11 2 19 12 19 23zm-31 18-1 6a25 25 0 0 1-16-30c10 3 17 12 17 24zm-20-563a42 42 0 0 1-79 20 42 42 0 0 1 18-57c6-3 12-5 19-5a42 42 0 0 1 42 42z" class="st0"/><path d="M776 1782a42 42 0 0 1-57-18 41 41 0 0 1 57 18zm-23 59-15 2c-16 0-30-9-37-22l15-3c16 0 30 9 37 23zm-2-79-28 78m-24-52 78 29" class="st0"/><circle cx="187.1" cy="844.6" r="28" class="st0"/><ellipse cx="193.7" cy="842.8" class="st0" rx="16" ry="19.3" transform="rotate(-16 194 843)"/><ellipse cx="193.4" cy="836.6" class="st0" rx="5.4" ry="4.8" transform="rotate(-16 193 837)"/><ellipse cx="197.2" cy="846.6" class="st0" rx="6.6" ry="5.8" transform="rotate(-16 197 847)"/><path d="M598 1210c8-9 31-29 59-5s6 53-5 59c-4 2-19-15-23-20s-16-28-31-34z" class="st1"/><path d="M598 1210s-29-7-30-6 0 2 4 4c10 4 16 11 18 18 3 6 3 19 20 25s28 3 28 3m-27-35s23-24 46-14c0 0 8 11-6 26-15 16-18 17-18 17" class="st1"/><path d="m383 1826 43-99c3-8 15-10 22-4s9 13 6 19c-2 7-64 87-64 87l-7-3z" class="st0"/><path d="m383 1826-22 37 8 5 21-39z" class="st0"/><ellipse cx="363.4" cy="1868.9" class="st0" rx="4.5" ry="8.1" transform="rotate(-60 363 1869)"/><path d="m422 1755 12-25c2-2 7-3 10 0m-63 101 1 13m-9-2 2 14m-9-2 3 14" class="st0"/><path stroke-width="3" d="m-55 2364 43-13 5 16-43 13zm54-16 43-13 5 16-44 13zm-107-3 44-13 4 16-43 13zm49-22 43-13 5 16-43 13zm50-23 43-13 5 16-43 13zm-30 41 44-13 4 16-43 13zm-59 72 44-13 4 16-43 13zm54-16 43-13 5 16-44 13z" class="st0"/><path stroke-width="3" d="m-1 2384 43-13 5 16-43 13zm-71 3 44-13 4 16-43 13z" class="st0"/><path stroke-width="3" d="m-28 2374 43-13 5 16-44 13zm1056 4 43-13 5 16-43 13z" class="st0"/><path stroke-width="3" d="m1070 2364 43-13 5 16-43 13zm53-16 44-13 4 16-43 13zm-106-3 44-13 4 16-43 13zm49-22 43-13 5 16-43 13zm50-23 43-13 5 16-43 13z" class="st0"/><path stroke-width="3" d="m1044 2355 43-13 5 16-43 13z" class="st0"/><path stroke-width="3" d="m1086 2341 43-13 5 16-43 13zm-59 72 43-13 5 16-43 13zm53-16 44-13 4 16-43 13z" class="st0"/><path stroke-width="3" d="m1124 2384 43-13 5 16-44 13zm-71 3 44-13 4 16-43 13zm44-13 43-13 5 16-43 13z" class="st0"/><path d="m145 1794 32-13 33 13-33 15zm32 15v43l30-14 3-3v-20" class="st0"/><path d="m223 1804-14-10 15-9v-3l-29-11h-3l-15 10-13-10h-3l-30 11v2l14 10-14 10v2l30 14h3l13-11 15 12h3l27-14c2 0 2-2 1-3zm-78 9v21l1 3 31 15m883-1596 55-170m-6 171 55-171m-55 16 50 1m-60 32 49 1m-60 32 49 1m-60 32 50 1m-60 32 49 1M-65 256l55-170m-6 171L39 86m-55 16 50 1m-60 32 49 1m-60 32 49 1m-60 32 50 1m-60 32 49 1m1117 141-26-10 13-51 37 14z" class="st0"/><path d="m1137 331-47-18 8-11 40 15zm-10 8-37-2m29 13-31-1" class="st0"/><path d="m1130 314 13-18h13M-17 376l-26-10 13-51 37 14z" class="st0"/><path d="m12 331-47-18 8-11 40 15zm-10 8-37-2m29 13-31-1" class="st0"/><path d="m5 314 13-18h13m1122 102h0c-6-4-13-2-17 3l-3 3-2 1-3-2c-6-4-13-3-17 2h0c-4 6-3 14 2 18l24 17 2-1 17-23c4-6 3-14-3-18zm-30 84h0c5 4 13 3 17-3l3-3 2-1 3 3c5 4 13 2 17-3h0c4-6 3-14-3-18l-23-16h-2l-17 23c-4 6-3 14 3 18z" class="st0"/><path d="M1181 455h0c4-5 3-13-3-17l-3-2-1-3 2-3c5-5 3-13-2-17h0c-6-4-14-3-18 3l-17 23 1 2 23 17c6 4 14 3 18-3zm-86-30h0c-4 6-3 13 3 17l3 3 1 2-3 3c-4 6-2 14 3 18h0c6 4 14 2 18-3l16-24v-2l-23-17c-6-4-14-3-18 3zM28 398h0c-5-4-13-2-17 3l-3 3-2 1-3-2c-6-4-13-3-17 2h0c-4 6-3 14 2 18l24 16h2l17-23c4-6 3-14-3-18zm-30 84h0c5 4 13 3 17-3l2-3 3-1 3 3c6 4 13 2 17-3h0c4-6 3-14-3-18l-23-16h-2l-17 24c-4 5-3 13 3 17z" class="st0"/><path d="M-30 425h0c-4 6-3 13 3 17l3 3 1 2-3 3c-4 6-2 14 3 18h0c6 4 14 2 18-3l16-24v-2l-23-17c-6-4-14-3-18 3zm86 30h0c4-5 3-13-3-17l-3-2-1-3 3-3c4-5 2-13-3-17h0c-6-4-14-3-18 3l-16 23v2l23 17c6 4 14 3 18-3zm1086 542h0c-2 1-5 0-6-3l-7-18c-1-2 0-5 2-6h0c2-1 4 0 5 2l8 19c1 2 0 5-2 6z" class="st0"/><circle cx="1117.5" cy="939.5" r="22" class="st0"/><circle cx="1117.5" cy="939.5" r="15.8" class="st0"/><path d="M1107 944c-2-6 0-12 6-15m13 31 5 10M17 997h0c-2 1-4 0-5-3l-8-18c-1-2 0-5 2-6h0c2-1 4 0 5 2l8 19c1 2 0 5-2 6z" class="st0"/><circle cx="-7.5" cy="939.5" r="22" class="st0"/><circle cx="-7.5" cy="939.5" r="15.8" class="st0" transform="rotate(-89 -8 940) scale(1.00005)"/><path d="M1114 54a27 27 0 0 1-14-49c2-1 4-1 5 1s1 4-1 6a19 19 0 1 0 20 0c-2-1-2-4-1-6s3-2 5-1c8 5 12 13 12 23 1 14-11 26-26 26z" class="st1"/><path d="M1114 33c-2 0-4-2-4-4V0c0-2 2-4 4-4s4 2 4 4v29c0 2-2 4-4 4zM-11 54A27 27 0 0 1-25 5c2-1 4-1 5 1s1 4-1 6a19 19 0 1 0 20 0c-2-1-2-4-1-6s4-2 5-1c8 5 13 13 13 22 0 15-12 27-27 27zm1125 2415c-2 0-4-2-4-4v-29c0-2 2-4 4-4s4 2 4 4v29c0 2-2 4-4 4zM516-41c-12-3-31-3-49-3l-28 2c-26 3-21 34-21 34l4 52c0 4 3 7 7 7h94c3 0 6-3 7-7l3-52s1-29-17-33z" class="st1"/><path d="M469-8a7 7 0 0 1 13 0 6 6 0 1 1-13 0zm22 17v3h-31V9m73-17h-43m-30 0h-42M532 9h-41m-31 0h-41" class="st1"/><path d="M491 9V-4a15 15 0 0 0-5-11c-2-3-6-5-11-5a16 16 0 0 0-15 16V9" class="st1"/><path d="m473-2-2 8 9 1-3-9m-33-40s-8 6-10 17c-1 3 2 7 6 7l24 1 2-2 1-25m17 0 1 25 1 1h27c4 0 7-4 6-7-1-7-4-15-12-17M430 9l1 25c0 4 4 8 8 8h73c4 0 7-3 8-7l3-26m-7 2386c-12-3-31-3-49-3l-28 2c-26 3-21 34-21 34l4 52c0 4 3 7 6 7h95c3 0 6-3 7-7l3-52s1-29-17-33z" class="st1"/><path d="M469 2428a7 7 0 0 1 13 0 6 6 0 1 1-13 0zm22 17v3h-31v-3m73-17h-43m-30 0h-42m114 17h-41m-31 0h-41" class="st1"/><path d="M475 2435c-4 0-6-3-6-7a7 7 0 0 1 13 0c0 4-3 7-7 7z" class="st1"/><path d="M491 2445v-13a15 15 0 0 0-5-11c-2-3-6-5-11-5a16 16 0 0 0-15 16v13" class="st1"/><path d="m473 2435-2 7 9 1-3-8m-33-41s-8 6-10 17c-1 3 2 7 6 7l24 1 2-2 1-25m17 0 1 25 1 1h27c4 0 7-4 6-7-1-7-4-15-12-17m-77 51 1 25c0 4 4 7 8 7l73 1c4 0 7-3 8-7l3-26" class="st1"/><path d="m132 796-1 3c-1 2-3 4-5 4l-18 5a9 9 0 1 1-5-17l18-5c3-1 7 0 9 3m15-4 1-3c1-2 3-4 6-4l18-5a9 9 0 1 1 4 17l-18 5c-3 1-7 0-9-3m-22 2 29-7" class="st0"/><circle cx="337.5" cy="610" r="16.8" class="st2"/><circle cx="367.2" cy="582.2" r="8.7" class="st2"/><circle cx="367.3" cy="643.5" r="10.8" class="st2"/><path d="m349 597 11-9m-11 36 10 11m784 504c2 0 3-3 2-4l-9-11-9-12c-1-2-3-2-4 0l-10 12-9 11c-1 1 0 4 2 4h6c2 0 3 1 3 2v25l2 2h15l2-2v-25c0-1 1-2 3-2h6zm-1125 0c2 0 3-3 2-4l-9-11-9-12c-1-2-3-2-4 0l-10 12-9 11c-1 1 0 4 2 4h6c2 0 3 1 3 2v25l2 2H7l2-2v-25c0-1 1-2 3-2h6zm980 594 31 36h5l70-61c1-1 2-4 0-5l-30-36h-6l-70 61v5z" class="st0"/><path d="m1048 1692 8-7c2-2 5-2 6 0l24 28v5l-40 35c-2 1-5 1-6-1l-24-27v-6l7-6" class="st0"/><path d="m1076 1718-28 25c-3 2-7 2-9-1l-13-15c-2-2-2-6 1-8l28-25c2-2 6-2 8 1l13 15c3 2 2 6 0 8z" class="st0"/><circle cx="1027.7" cy="1752.4" r="2.7" class="st0"/><circle cx="1087.7" cy="1700.2" r="2.7" class="st0"/><circle cx="1094.4" cy="1707.9" r="2.7" class="st0"/><circle cx="1034.4" cy="1760.1" r="2.7" class="st0"/><path d="m1066 1681 5-4m-1 8 4-4m-1 8 5-4M82 2408v83h-5v-83h5zm0 0 2-4c0-3-2-5-4-5s-5 2-5 5l2 4" class="st0"/><path d="M141 2412v36c-20-14-40 15-59 0v-36c19 15 39-15 59 0z" class="st1"/><path d="M82-28v83h-5v-83h5zm0 0 2-4c0-3-2-5-4-5s-5 2-5 5l2 4" class="st0"/><path d="M141-24v36c-20-14-40 15-59 0v-36c19 15 39-15 59 0z" class="st1"/><path d="m517 1798-18 31c-2 2-1 4 1 6l56 33c2 2 4 1 6-1l18-30c1-3 1-5-1-7l-56-33c-2-2-4-1-6 1z" class="st0"/><path d="M546 1833h-4c-2 0-3-1-4-3l-2-3" class="st0"/><path d="M580 1833h-38c-2 0-3-1-4-3l-2-3-16-31m16 31-38 5m61 37-13-36m14 6 7 4m-10 1 7 4" class="st0"/><path stroke-width="3" d="m545 1936 52-26 26 52-52 26z" class="st0"/><path stroke-width="3" d="m555 1939 39-19 19 39-39 19z" class="st0"/><path d="m610 1952 3 7-6 3-19-6-11-4-19-6-3-7 7-3 19 6 10 3z" class="st0"/><path d="m581 1942 6-19 7-3 4 7-7 18 13-6m-33 0 13-7m-18 26 11-6-6 19 3 7 7-3 7-19m-4 10 14-7m356 212-28-9 15-11s6-1 13 3c2 2 6 1 9 0 5-1 10 1 11 6l8 20-28-9z" class="st0"/><path d="m981 2157-6-16 15-47-21-7-15 46-14 11-20 14c-4 3-3 9 2 11l30 9 29 9c5 2 9-3 8-8l-8-22z" class="st0"/><path d="m992 2094-26-8c-2 0-3-2-2-4l2-9 5-2 26 8c1 1 3 3 2 5l-3 8c0 2-2 3-4 2z" class="st0"/><path d="m992 2077-16-4 2-15 20 6z" class="st0"/><circle cx="965.8" cy="2161.9" r="2" class="st0"/><circle cx="946.1" cy="2160.5" r="2" class="st0"/><circle cx="298.7" cy="2201.4" r="28.5" class="st0"/><circle cx="298.7" cy="2201.4" r="21.5" class="st0"/><path d="m305 2190-7 11 10 6m13-33-10-6c-2-1-3-3-2-5h0c1-2 3-2 5-1l11 6c2 1 2 3 1 5h0c-1 1-3 2-5 1z" class="st0"/><path stroke-width="3" d="m309 2174 3-6 9 5-4 6z" class="st0"/><path d="m656 2298-46 19c-4 2-9 0-10-4l-10-21c-1-4 1-9 5-10l46-20c4-2 8 0 10 4l9 21c2 4 0 9-4 11z" class="st0"/><path stroke-width="3" d="m600 2279 36-15 15 36-36 15z" class="st0"/><path d="m633 2282-6 3-2-6-7 3 2 6-6 2 3 7 6-3 3 7 7-3-3-6 6-3zm-6-14-19 8-2-5c-1-3 0-6 3-7l9-4c3-1 6 0 7 3l2 5z" class="st0"/><ellipse cx="230.8" cy="2056.6" class="st3" rx="6.6" ry="14.8" transform="rotate(-21 231 2057)"/><path d="M144 2106c-4 1-9-4-12-12s-2-15 1-16m93-35s-24 14-45 22-48 13-48 13m103-8s-30 7-48 14c-17 7-44 22-44 22m85-39 7-3s-9-3-13-16m-36 21-1-6m4 15 4 4m-16-11v-5m5 16 3 3" class="st3"/><circle cx="183.6" cy="2075" r="6.8" class="st3"/></svg>